<mxfile host="app.diagrams.net" modified="2023-12-04T03:33:03.852Z" agent="Mozilla/5.0 (Windows NT 10.0; Win64; x64) AppleWebKit/537.36 (KHTML, like Gecko) Chrome/119.0.0.0 Safari/537.36 Edg/119.0.0.0" etag="QpV6uY4Xkg-ViPA1AwPB" version="22.1.5" type="device">
  <diagram id="C5RBs43oDa-KdzZeNtuy" name="Page-1">
    <mxGraphModel dx="4318" dy="2522" grid="1" gridSize="10" guides="1" tooltips="1" connect="1" arrows="1" fold="1" page="1" pageScale="1" pageWidth="850" pageHeight="1100" math="0" shadow="0">
      <root>
        <mxCell id="WIyWlLk6GJQsqaUBKTNV-0" />
        <mxCell id="WIyWlLk6GJQsqaUBKTNV-1" parent="WIyWlLk6GJQsqaUBKTNV-0" />
        <mxCell id="0T9Lj9NKAyRKnuzEVl1E-0" value="ActivationFunctions" style="swimlane;fontStyle=2;align=center;verticalAlign=top;childLayout=stackLayout;horizontal=1;startSize=26;horizontalStack=0;resizeParent=1;resizeLast=0;collapsible=1;marginBottom=0;rounded=0;shadow=0;strokeWidth=1;" parent="WIyWlLk6GJQsqaUBKTNV-1" vertex="1">
          <mxGeometry x="-420" y="370" width="160" height="138" as="geometry">
            <mxRectangle x="230" y="140" width="160" height="26" as="alternateBounds" />
          </mxGeometry>
        </mxCell>
        <mxCell id="0T9Lj9NKAyRKnuzEVl1E-4" value="" style="line;html=1;strokeWidth=1;align=left;verticalAlign=middle;spacingTop=-1;spacingLeft=3;spacingRight=3;rotatable=0;labelPosition=right;points=[];portConstraint=eastwest;" parent="0T9Lj9NKAyRKnuzEVl1E-0" vertex="1">
          <mxGeometry y="26" width="160" height="8" as="geometry" />
        </mxCell>
        <mxCell id="0T9Lj9NKAyRKnuzEVl1E-5" value="+ sigmoid(double x): double" style="text;align=left;verticalAlign=top;spacingLeft=4;spacingRight=4;overflow=hidden;rotatable=0;points=[[0,0.5],[1,0.5]];portConstraint=eastwest;fontStyle=4" parent="0T9Lj9NKAyRKnuzEVl1E-0" vertex="1">
          <mxGeometry y="34" width="160" height="26" as="geometry" />
        </mxCell>
        <mxCell id="0T9Lj9NKAyRKnuzEVl1E-18" value="+ relu(double x): double" style="text;align=left;verticalAlign=top;spacingLeft=4;spacingRight=4;overflow=hidden;rotatable=0;points=[[0,0.5],[1,0.5]];portConstraint=eastwest;fontStyle=4" parent="0T9Lj9NKAyRKnuzEVl1E-0" vertex="1">
          <mxGeometry y="60" width="160" height="26" as="geometry" />
        </mxCell>
        <mxCell id="0T9Lj9NKAyRKnuzEVl1E-19" value="+ tanh(double x): double" style="text;align=left;verticalAlign=top;spacingLeft=4;spacingRight=4;overflow=hidden;rotatable=0;points=[[0,0.5],[1,0.5]];portConstraint=eastwest;fontStyle=4" parent="0T9Lj9NKAyRKnuzEVl1E-0" vertex="1">
          <mxGeometry y="86" width="160" height="26" as="geometry" />
        </mxCell>
        <mxCell id="0T9Lj9NKAyRKnuzEVl1E-12" value="HiddenLayer" style="swimlane;fontStyle=2;align=center;verticalAlign=top;childLayout=stackLayout;horizontal=1;startSize=26;horizontalStack=0;resizeParent=1;resizeLast=0;collapsible=1;marginBottom=0;rounded=0;shadow=0;strokeWidth=1;" parent="WIyWlLk6GJQsqaUBKTNV-1" vertex="1">
          <mxGeometry x="-420" y="560" width="160" height="320" as="geometry">
            <mxRectangle x="230" y="140" width="160" height="26" as="alternateBounds" />
          </mxGeometry>
        </mxCell>
        <mxCell id="0T9Lj9NKAyRKnuzEVl1E-13" value="- weights: double[][]" style="text;align=left;verticalAlign=top;spacingLeft=4;spacingRight=4;overflow=hidden;rotatable=0;points=[[0,0.5],[1,0.5]];portConstraint=eastwest;" parent="0T9Lj9NKAyRKnuzEVl1E-12" vertex="1">
          <mxGeometry y="26" width="160" height="26" as="geometry" />
        </mxCell>
        <mxCell id="0T9Lj9NKAyRKnuzEVl1E-14" value="- currentLayerSize: int" style="text;align=left;verticalAlign=top;spacingLeft=4;spacingRight=4;overflow=hidden;rotatable=0;points=[[0,0.5],[1,0.5]];portConstraint=eastwest;rounded=0;shadow=0;html=0;" parent="0T9Lj9NKAyRKnuzEVl1E-12" vertex="1">
          <mxGeometry y="52" width="160" height="26" as="geometry" />
        </mxCell>
        <mxCell id="0T9Lj9NKAyRKnuzEVl1E-15" value="- previousLayerSize: int" style="text;align=left;verticalAlign=top;spacingLeft=4;spacingRight=4;overflow=hidden;rotatable=0;points=[[0,0.5],[1,0.5]];portConstraint=eastwest;rounded=0;shadow=0;html=0;" parent="0T9Lj9NKAyRKnuzEVl1E-12" vertex="1">
          <mxGeometry y="78" width="160" height="26" as="geometry" />
        </mxCell>
        <mxCell id="0T9Lj9NKAyRKnuzEVl1E-34" value="- random: Random" style="text;align=left;verticalAlign=top;spacingLeft=4;spacingRight=4;overflow=hidden;rotatable=0;points=[[0,0.5],[1,0.5]];portConstraint=eastwest;rounded=0;shadow=0;html=0;" parent="0T9Lj9NKAyRKnuzEVl1E-12" vertex="1">
          <mxGeometry y="104" width="160" height="26" as="geometry" />
        </mxCell>
        <mxCell id="0T9Lj9NKAyRKnuzEVl1E-16" value="" style="line;html=1;strokeWidth=1;align=left;verticalAlign=middle;spacingTop=-1;spacingLeft=3;spacingRight=3;rotatable=0;labelPosition=right;points=[];portConstraint=eastwest;" parent="0T9Lj9NKAyRKnuzEVl1E-12" vertex="1">
          <mxGeometry y="130" width="160" height="8" as="geometry" />
        </mxCell>
        <mxCell id="0T9Lj9NKAyRKnuzEVl1E-17" value="+ hiddenLayer(int, int)" style="text;align=left;verticalAlign=top;spacingLeft=4;spacingRight=4;overflow=hidden;rotatable=0;points=[[0,0.5],[1,0.5]];portConstraint=eastwest;" parent="0T9Lj9NKAyRKnuzEVl1E-12" vertex="1">
          <mxGeometry y="138" width="160" height="26" as="geometry" />
        </mxCell>
        <mxCell id="0T9Lj9NKAyRKnuzEVl1E-35" value="+ clone(): HiddenLayer" style="text;align=left;verticalAlign=top;spacingLeft=4;spacingRight=4;overflow=hidden;rotatable=0;points=[[0,0.5],[1,0.5]];portConstraint=eastwest;" parent="0T9Lj9NKAyRKnuzEVl1E-12" vertex="1">
          <mxGeometry y="164" width="160" height="26" as="geometry" />
        </mxCell>
        <mxCell id="0T9Lj9NKAyRKnuzEVl1E-36" value="+ mutate(float): void" style="text;align=left;verticalAlign=top;spacingLeft=4;spacingRight=4;overflow=hidden;rotatable=0;points=[[0,0.5],[1,0.5]];portConstraint=eastwest;" parent="0T9Lj9NKAyRKnuzEVl1E-12" vertex="1">
          <mxGeometry y="190" width="160" height="26" as="geometry" />
        </mxCell>
        <mxCell id="0T9Lj9NKAyRKnuzEVl1E-38" value="+ initRandom(): void" style="text;align=left;verticalAlign=top;spacingLeft=4;spacingRight=4;overflow=hidden;rotatable=0;points=[[0,0.5],[1,0.5]];portConstraint=eastwest;" parent="0T9Lj9NKAyRKnuzEVl1E-12" vertex="1">
          <mxGeometry y="216" width="160" height="26" as="geometry" />
        </mxCell>
        <mxCell id="0T9Lj9NKAyRKnuzEVl1E-37" value="+ activate(double[]): double[]" style="text;align=left;verticalAlign=top;spacingLeft=4;spacingRight=4;overflow=hidden;rotatable=0;points=[[0,0.5],[1,0.5]];portConstraint=eastwest;" parent="0T9Lj9NKAyRKnuzEVl1E-12" vertex="1">
          <mxGeometry y="242" width="160" height="26" as="geometry" />
        </mxCell>
        <mxCell id="0T9Lj9NKAyRKnuzEVl1E-39" value="+ toString(): String" style="text;align=left;verticalAlign=top;spacingLeft=4;spacingRight=4;overflow=hidden;rotatable=0;points=[[0,0.5],[1,0.5]];portConstraint=eastwest;" parent="0T9Lj9NKAyRKnuzEVl1E-12" vertex="1">
          <mxGeometry y="268" width="160" height="26" as="geometry" />
        </mxCell>
        <mxCell id="0T9Lj9NKAyRKnuzEVl1E-40" value="+ getWeights(): double[][]" style="text;align=left;verticalAlign=top;spacingLeft=4;spacingRight=4;overflow=hidden;rotatable=0;points=[[0,0.5],[1,0.5]];portConstraint=eastwest;" parent="0T9Lj9NKAyRKnuzEVl1E-12" vertex="1">
          <mxGeometry y="294" width="160" height="26" as="geometry" />
        </mxCell>
        <mxCell id="0T9Lj9NKAyRKnuzEVl1E-92" value="Timer" style="swimlane;fontStyle=2;align=center;verticalAlign=top;childLayout=stackLayout;horizontal=1;startSize=26;horizontalStack=0;resizeParent=1;resizeLast=0;collapsible=1;marginBottom=0;rounded=0;shadow=0;strokeWidth=1;" parent="WIyWlLk6GJQsqaUBKTNV-1" vertex="1">
          <mxGeometry x="-1530" y="816" width="160" height="60" as="geometry">
            <mxRectangle x="230" y="140" width="160" height="26" as="alternateBounds" />
          </mxGeometry>
        </mxCell>
        <mxCell id="0T9Lj9NKAyRKnuzEVl1E-93" value="" style="line;html=1;strokeWidth=1;align=left;verticalAlign=middle;spacingTop=-1;spacingLeft=3;spacingRight=3;rotatable=0;labelPosition=right;points=[];portConstraint=eastwest;" parent="0T9Lj9NKAyRKnuzEVl1E-92" vertex="1">
          <mxGeometry y="26" width="160" height="8" as="geometry" />
        </mxCell>
        <mxCell id="0T9Lj9NKAyRKnuzEVl1E-96" value="+ handle(long): void" style="text;align=left;verticalAlign=top;spacingLeft=4;spacingRight=4;overflow=hidden;rotatable=0;points=[[0,0.5],[1,0.5]];portConstraint=eastwest;fontStyle=0" parent="0T9Lj9NKAyRKnuzEVl1E-92" vertex="1">
          <mxGeometry y="34" width="160" height="26" as="geometry" />
        </mxCell>
        <mxCell id="0T9Lj9NKAyRKnuzEVl1E-118" value="SelfDrivingCar" style="swimlane;fontStyle=2;align=center;verticalAlign=top;childLayout=stackLayout;horizontal=1;startSize=26;horizontalStack=0;resizeParent=1;resizeLast=0;collapsible=1;marginBottom=0;rounded=0;shadow=0;strokeWidth=1;" parent="WIyWlLk6GJQsqaUBKTNV-1" vertex="1">
          <mxGeometry x="-1090" y="816" width="160" height="86" as="geometry">
            <mxRectangle x="230" y="140" width="160" height="26" as="alternateBounds" />
          </mxGeometry>
        </mxCell>
        <mxCell id="0T9Lj9NKAyRKnuzEVl1E-119" value="" style="line;html=1;strokeWidth=1;align=left;verticalAlign=middle;spacingTop=-1;spacingLeft=3;spacingRight=3;rotatable=0;labelPosition=right;points=[];portConstraint=eastwest;" parent="0T9Lj9NKAyRKnuzEVl1E-118" vertex="1">
          <mxGeometry y="26" width="160" height="8" as="geometry" />
        </mxCell>
        <mxCell id="0T9Lj9NKAyRKnuzEVl1E-120" value="+ start(PrimaryStage): void" style="text;align=left;verticalAlign=top;spacingLeft=4;spacingRight=4;overflow=hidden;rotatable=0;points=[[0,0.5],[1,0.5]];portConstraint=eastwest;fontStyle=0" parent="0T9Lj9NKAyRKnuzEVl1E-118" vertex="1">
          <mxGeometry y="34" width="160" height="26" as="geometry" />
        </mxCell>
        <mxCell id="0T9Lj9NKAyRKnuzEVl1E-121" value="+main(String[]): void" style="text;align=left;verticalAlign=top;spacingLeft=4;spacingRight=4;overflow=hidden;rotatable=0;points=[[0,0.5],[1,0.5]];portConstraint=eastwest;fontStyle=4" parent="0T9Lj9NKAyRKnuzEVl1E-118" vertex="1">
          <mxGeometry y="60" width="160" height="26" as="geometry" />
        </mxCell>
        <mxCell id="0T9Lj9NKAyRKnuzEVl1E-137" value="WelcomeController" style="swimlane;fontStyle=2;align=center;verticalAlign=top;childLayout=stackLayout;horizontal=1;startSize=26;horizontalStack=0;resizeParent=1;resizeLast=0;collapsible=1;marginBottom=0;rounded=0;shadow=0;strokeWidth=1;" parent="WIyWlLk6GJQsqaUBKTNV-1" vertex="1">
          <mxGeometry x="-1090" y="1560" width="320" height="258" as="geometry">
            <mxRectangle x="-1090" y="1560" width="160" height="26" as="alternateBounds" />
          </mxGeometry>
        </mxCell>
        <mxCell id="239VDCw83_5TDXjA1n3P-55" value="" style="endArrow=diamondThin;endFill=1;endSize=24;html=1;rounded=0;entryX=0.007;entryY=0.062;entryDx=0;entryDy=0;entryPerimeter=0;" parent="0T9Lj9NKAyRKnuzEVl1E-137" source="DzD_gmXR54Xh9kk08HtV-0" edge="1">
          <mxGeometry width="160" relative="1" as="geometry">
            <mxPoint x="784.76" y="40.16000000000008" as="sourcePoint" />
            <mxPoint x="280" y="10.000000000000227" as="targetPoint" />
          </mxGeometry>
        </mxCell>
        <mxCell id="0T9Lj9NKAyRKnuzEVl1E-143" value="&lt;span style=&quot;color: rgb(0, 0, 0); font-family: Helvetica; font-size: 12px; font-variant-ligatures: normal; font-variant-caps: normal; font-weight: 400; letter-spacing: normal; orphans: 2; text-align: left; text-indent: 0px; text-transform: none; widows: 2; word-spacing: 0px; -webkit-text-stroke-width: 0px; background-color: rgb(251, 251, 251); float: none; display: inline !important;&quot;&gt;&lt;i style=&quot;&quot;&gt;- welcome: Label&lt;/i&gt;&lt;/span&gt;" style="text;whiteSpace=wrap;html=1;" parent="0T9Lj9NKAyRKnuzEVl1E-137" vertex="1">
          <mxGeometry y="26" width="320" height="20" as="geometry" />
        </mxCell>
        <mxCell id="0T9Lj9NKAyRKnuzEVl1E-144" value="&lt;span style=&quot;color: rgb(0, 0, 0); font-family: Helvetica; font-size: 12px; font-variant-ligatures: normal; font-variant-caps: normal; font-weight: 400; letter-spacing: normal; orphans: 2; text-align: left; text-indent: 0px; text-transform: none; widows: 2; word-spacing: 0px; -webkit-text-stroke-width: 0px; background-color: rgb(251, 251, 251); float: none; display: inline !important;&quot;&gt;&lt;i style=&quot;&quot;&gt;- start: Button&lt;/i&gt;&lt;/span&gt;" style="text;whiteSpace=wrap;html=1;" parent="0T9Lj9NKAyRKnuzEVl1E-137" vertex="1">
          <mxGeometry y="46" width="320" height="20" as="geometry" />
        </mxCell>
        <mxCell id="0T9Lj9NKAyRKnuzEVl1E-145" value="&lt;span style=&quot;color: rgb(0, 0, 0); font-family: Helvetica; font-size: 12px; font-variant-ligatures: normal; font-variant-caps: normal; font-weight: 400; letter-spacing: normal; orphans: 2; text-align: left; text-indent: 0px; text-transform: none; widows: 2; word-spacing: 0px; -webkit-text-stroke-width: 0px; background-color: rgb(251, 251, 251); float: none; display: inline !important;&quot;&gt;&lt;i style=&quot;&quot;&gt;- exit: Button&lt;/i&gt;&lt;/span&gt;" style="text;whiteSpace=wrap;html=1;" parent="0T9Lj9NKAyRKnuzEVl1E-137" vertex="1">
          <mxGeometry y="66" width="320" height="20" as="geometry" />
        </mxCell>
        <mxCell id="0T9Lj9NKAyRKnuzEVl1E-146" value="&lt;span style=&quot;color: rgb(0, 0, 0); font-family: Helvetica; font-size: 12px; font-variant-ligatures: normal; font-variant-caps: normal; font-weight: 400; letter-spacing: normal; orphans: 2; text-align: left; text-indent: 0px; text-transform: none; widows: 2; word-spacing: 0px; -webkit-text-stroke-width: 0px; background-color: rgb(251, 251, 251); float: none; display: inline !important;&quot;&gt;&lt;i style=&quot;&quot;&gt;- volumeSlider: Slider&lt;/i&gt;&lt;/span&gt;" style="text;whiteSpace=wrap;html=1;" parent="0T9Lj9NKAyRKnuzEVl1E-137" vertex="1">
          <mxGeometry y="86" width="320" height="20" as="geometry" />
        </mxCell>
        <mxCell id="0T9Lj9NKAyRKnuzEVl1E-147" value="&lt;span style=&quot;color: rgb(0, 0, 0); font-family: Helvetica; font-size: 12px; font-variant-ligatures: normal; font-variant-caps: normal; font-weight: 400; letter-spacing: normal; orphans: 2; text-align: left; text-indent: 0px; text-transform: none; widows: 2; word-spacing: 0px; -webkit-text-stroke-width: 0px; background-color: rgb(251, 251, 251); float: none; display: inline !important;&quot;&gt;&lt;i style=&quot;&quot;&gt;- player: MediaPlayer&lt;/i&gt;&lt;/span&gt;" style="text;whiteSpace=wrap;html=1;" parent="0T9Lj9NKAyRKnuzEVl1E-137" vertex="1">
          <mxGeometry y="106" width="320" height="20" as="geometry" />
        </mxCell>
        <mxCell id="0T9Lj9NKAyRKnuzEVl1E-148" value="&lt;span style=&quot;color: rgb(0, 0, 0); font-family: Helvetica; font-size: 12px; font-variant-ligatures: normal; font-variant-caps: normal; font-weight: 400; letter-spacing: normal; orphans: 2; text-align: left; text-indent: 0px; text-transform: none; widows: 2; word-spacing: 0px; -webkit-text-stroke-width: 0px; background-color: rgb(251, 251, 251); float: none; display: inline !important;&quot;&gt;&lt;i style=&quot;&quot;&gt;- simulation: Simulation&lt;/i&gt;&lt;/span&gt;" style="text;whiteSpace=wrap;html=1;" parent="0T9Lj9NKAyRKnuzEVl1E-137" vertex="1">
          <mxGeometry y="126" width="320" height="20" as="geometry" />
        </mxCell>
        <mxCell id="0T9Lj9NKAyRKnuzEVl1E-149" value="" style="line;html=1;strokeWidth=1;align=left;verticalAlign=middle;spacingTop=-1;spacingLeft=3;spacingRight=3;rotatable=0;labelPosition=right;points=[];portConstraint=eastwest;" parent="0T9Lj9NKAyRKnuzEVl1E-137" vertex="1">
          <mxGeometry y="146" width="320" height="8" as="geometry" />
        </mxCell>
        <mxCell id="0T9Lj9NKAyRKnuzEVl1E-150" value="+ initialize(URL, ResourceBundle): void" style="text;align=left;verticalAlign=top;spacingLeft=4;spacingRight=4;overflow=hidden;rotatable=0;points=[[0,0.5],[1,0.5]];portConstraint=eastwest;fontStyle=0" parent="0T9Lj9NKAyRKnuzEVl1E-137" vertex="1">
          <mxGeometry y="154" width="320" height="26" as="geometry" />
        </mxCell>
        <mxCell id="U0fnFoimIb6kzD0exgC3-80" value="+ getPlayer(): MediaPlayer" style="text;align=left;verticalAlign=top;spacingLeft=4;spacingRight=4;overflow=hidden;rotatable=0;points=[[0,0.5],[1,0.5]];portConstraint=eastwest;fontStyle=0" parent="0T9Lj9NKAyRKnuzEVl1E-137" vertex="1">
          <mxGeometry y="180" width="320" height="26" as="geometry" />
        </mxCell>
        <mxCell id="0T9Lj9NKAyRKnuzEVl1E-151" value="+ changeVolume(Slider, Media): void" style="text;align=left;verticalAlign=top;spacingLeft=4;spacingRight=4;overflow=hidden;rotatable=0;points=[[0,0.5],[1,0.5]];portConstraint=eastwest;fontStyle=0" parent="0T9Lj9NKAyRKnuzEVl1E-137" vertex="1">
          <mxGeometry y="206" width="320" height="26" as="geometry" />
        </mxCell>
        <mxCell id="0T9Lj9NKAyRKnuzEVl1E-152" value="+ highlightButton(Button): void" style="text;align=left;verticalAlign=top;spacingLeft=4;spacingRight=4;overflow=hidden;rotatable=0;points=[[0,0.5],[1,0.5]];portConstraint=eastwest;fontStyle=0" parent="0T9Lj9NKAyRKnuzEVl1E-137" vertex="1">
          <mxGeometry y="232" width="320" height="26" as="geometry" />
        </mxCell>
        <mxCell id="0T9Lj9NKAyRKnuzEVl1E-156" value="style.css&#xa;" style="swimlane;fontStyle=2;align=center;verticalAlign=top;childLayout=stackLayout;horizontal=1;startSize=26;horizontalStack=0;resizeParent=1;resizeLast=0;collapsible=1;marginBottom=0;rounded=0;shadow=0;strokeWidth=1;" parent="WIyWlLk6GJQsqaUBKTNV-1" vertex="1">
          <mxGeometry x="-1315" y="703" width="160" height="34" as="geometry">
            <mxRectangle x="230" y="140" width="160" height="26" as="alternateBounds" />
          </mxGeometry>
        </mxCell>
        <mxCell id="0T9Lj9NKAyRKnuzEVl1E-157" value="" style="line;html=1;strokeWidth=1;align=left;verticalAlign=middle;spacingTop=-1;spacingLeft=3;spacingRight=3;rotatable=0;labelPosition=right;points=[];portConstraint=eastwest;" parent="0T9Lj9NKAyRKnuzEVl1E-156" vertex="1">
          <mxGeometry y="26" width="160" height="8" as="geometry" />
        </mxCell>
        <mxCell id="0T9Lj9NKAyRKnuzEVl1E-161" value="Simulation" style="swimlane;fontStyle=2;align=center;verticalAlign=top;childLayout=stackLayout;horizontal=1;startSize=26;horizontalStack=0;resizeParent=1;resizeLast=0;collapsible=1;marginBottom=0;rounded=0;shadow=0;strokeWidth=1;" parent="WIyWlLk6GJQsqaUBKTNV-1" vertex="1">
          <mxGeometry x="-1350" y="817" width="220" height="2890" as="geometry">
            <mxRectangle x="230" y="140" width="160" height="26" as="alternateBounds" />
          </mxGeometry>
        </mxCell>
        <mxCell id="0T9Lj9NKAyRKnuzEVl1E-162" value="" style="line;html=1;strokeWidth=1;align=left;verticalAlign=middle;spacingTop=-1;spacingLeft=3;spacingRight=3;rotatable=0;labelPosition=right;points=[];portConstraint=eastwest;" parent="0T9Lj9NKAyRKnuzEVl1E-161" vertex="1">
          <mxGeometry y="26" width="220" height="8" as="geometry" />
        </mxCell>
        <mxCell id="239VDCw83_5TDXjA1n3P-34" value="-&amp;nbsp;singleSimulation: Simulation" style="text;html=1;align=center;verticalAlign=middle;resizable=0;points=[];autosize=1;strokeColor=none;fillColor=none;" parent="0T9Lj9NKAyRKnuzEVl1E-161" vertex="1">
          <mxGeometry y="34" width="220" height="30" as="geometry" />
        </mxCell>
        <mxCell id="nv3WrUS5gKoo7LWLeV3Z-10" value="# angVelocity: TextField [0..1]" style="text;html=1;strokeColor=none;fillColor=none;align=center;verticalAlign=middle;whiteSpace=wrap;rounded=0;" parent="0T9Lj9NKAyRKnuzEVl1E-161" vertex="1">
          <mxGeometry y="64" width="220" height="30" as="geometry" />
        </mxCell>
        <mxCell id="nv3WrUS5gKoo7LWLeV3Z-11" value="# blueSlider: Label [0..1]" style="text;html=1;strokeColor=none;fillColor=none;align=center;verticalAlign=middle;whiteSpace=wrap;rounded=0;" parent="0T9Lj9NKAyRKnuzEVl1E-161" vertex="1">
          <mxGeometry y="94" width="220" height="26" as="geometry" />
        </mxCell>
        <mxCell id="nv3WrUS5gKoo7LWLeV3Z-12" value="# borders: Shape [0..1]" style="text;html=1;strokeColor=none;fillColor=none;align=center;verticalAlign=middle;whiteSpace=wrap;rounded=0;" parent="0T9Lj9NKAyRKnuzEVl1E-161" vertex="1">
          <mxGeometry y="120" width="220" height="30" as="geometry" />
        </mxCell>
        <mxCell id="nv3WrUS5gKoo7LWLeV3Z-13" value="#&amp;nbsp;bordersList: ArrayList&amp;lt;Shape&amp;gt; [0..*]" style="text;html=1;strokeColor=none;fillColor=none;align=center;verticalAlign=middle;whiteSpace=wrap;rounded=0;" parent="0T9Lj9NKAyRKnuzEVl1E-161" vertex="1">
          <mxGeometry y="150" width="220" height="30" as="geometry" />
        </mxCell>
        <mxCell id="nv3WrUS5gKoo7LWLeV3Z-14" value="#&amp;nbsp;carList: ArrayList&amp;lt;Car [0..+]" style="text;html=1;strokeColor=none;fillColor=none;align=center;verticalAlign=middle;whiteSpace=wrap;rounded=0;" parent="0T9Lj9NKAyRKnuzEVl1E-161" vertex="1">
          <mxGeometry y="180" width="220" height="30" as="geometry" />
        </mxCell>
        <mxCell id="nv3WrUS5gKoo7LWLeV3Z-15" value="#&amp;nbsp;carListFull: ArrayList&amp;lt;Car [0..*]" style="text;html=1;strokeColor=none;fillColor=none;align=center;verticalAlign=middle;whiteSpace=wrap;rounded=0;" parent="0T9Lj9NKAyRKnuzEVl1E-161" vertex="1">
          <mxGeometry y="210" width="220" height="30" as="geometry" />
        </mxCell>
        <mxCell id="nv3WrUS5gKoo7LWLeV3Z-16" value="#&amp;nbsp;carPane: Pane [0..1]" style="text;html=1;strokeColor=none;fillColor=none;align=center;verticalAlign=middle;whiteSpace=wrap;rounded=0;" parent="0T9Lj9NKAyRKnuzEVl1E-161" vertex="1">
          <mxGeometry y="240" width="220" height="30" as="geometry" />
        </mxCell>
        <mxCell id="nv3WrUS5gKoo7LWLeV3Z-17" value="#&amp;nbsp;carSpeed: TextField [0..1]" style="text;html=1;strokeColor=none;fillColor=none;align=center;verticalAlign=middle;whiteSpace=wrap;rounded=0;" parent="0T9Lj9NKAyRKnuzEVl1E-161" vertex="1">
          <mxGeometry y="270" width="220" height="30" as="geometry" />
        </mxCell>
        <mxCell id="nv3WrUS5gKoo7LWLeV3Z-18" value="#&amp;nbsp;colorSelector: Circle[0..1]" style="text;html=1;strokeColor=none;fillColor=none;align=center;verticalAlign=middle;whiteSpace=wrap;rounded=0;" parent="0T9Lj9NKAyRKnuzEVl1E-161" vertex="1">
          <mxGeometry y="300" width="220" height="30" as="geometry" />
        </mxCell>
        <mxCell id="nv3WrUS5gKoo7LWLeV3Z-19" value="#&amp;nbsp;deadCars: ArrayList&amp;lt;Car&amp;gt; [0..*]" style="text;html=1;strokeColor=none;fillColor=none;align=center;verticalAlign=middle;whiteSpace=wrap;rounded=0;" parent="0T9Lj9NKAyRKnuzEVl1E-161" vertex="1">
          <mxGeometry y="330" width="220" height="30" as="geometry" />
        </mxCell>
        <mxCell id="nv3WrUS5gKoo7LWLeV3Z-20" value="#&amp;nbsp;exit: Button [0..1]" style="text;html=1;strokeColor=none;fillColor=none;align=center;verticalAlign=middle;whiteSpace=wrap;rounded=0;" parent="0T9Lj9NKAyRKnuzEVl1E-161" vertex="1">
          <mxGeometry y="360" width="220" height="30" as="geometry" />
        </mxCell>
        <mxCell id="nv3WrUS5gKoo7LWLeV3Z-21" value="#&amp;nbsp;fitnessList: ArrayList&amp;lt;Integer&amp;gt; [0..*]" style="text;html=1;strokeColor=none;fillColor=none;align=center;verticalAlign=middle;whiteSpace=wrap;rounded=0;" parent="0T9Lj9NKAyRKnuzEVl1E-161" vertex="1">
          <mxGeometry y="390" width="220" height="30" as="geometry" />
        </mxCell>
        <mxCell id="nv3WrUS5gKoo7LWLeV3Z-22" value="#&amp;nbsp;gen: TextField [0..1]" style="text;html=1;strokeColor=none;fillColor=none;align=center;verticalAlign=middle;whiteSpace=wrap;rounded=0;" parent="0T9Lj9NKAyRKnuzEVl1E-161" vertex="1">
          <mxGeometry y="420" width="220" height="30" as="geometry" />
        </mxCell>
        <mxCell id="nv3WrUS5gKoo7LWLeV3Z-28" value="#&amp;nbsp;greenSlider: Label [0..1]" style="text;html=1;strokeColor=none;fillColor=none;align=center;verticalAlign=middle;whiteSpace=wrap;rounded=0;" parent="0T9Lj9NKAyRKnuzEVl1E-161" vertex="1">
          <mxGeometry y="450" width="220" height="30" as="geometry" />
        </mxCell>
        <mxCell id="nv3WrUS5gKoo7LWLeV3Z-23" value="#&amp;nbsp;intersections: ArrayList&amp;lt;Shape&amp;gt; [0..*]" style="text;html=1;strokeColor=none;fillColor=none;align=center;verticalAlign=middle;whiteSpace=wrap;rounded=0;" parent="0T9Lj9NKAyRKnuzEVl1E-161" vertex="1">
          <mxGeometry y="480" width="220" height="30" as="geometry" />
        </mxCell>
        <mxCell id="nv3WrUS5gKoo7LWLeV3Z-24" value="#&amp;nbsp;lastCar: Car [0..1]" style="text;html=1;strokeColor=none;fillColor=none;align=center;verticalAlign=middle;whiteSpace=wrap;rounded=0;" parent="0T9Lj9NKAyRKnuzEVl1E-161" vertex="1">
          <mxGeometry y="510" width="220" height="30" as="geometry" />
        </mxCell>
        <mxCell id="nv3WrUS5gKoo7LWLeV3Z-33" value="#&amp;nbsp;layers: int[] [0..*]" style="text;html=1;strokeColor=none;fillColor=none;align=center;verticalAlign=middle;whiteSpace=wrap;rounded=0;" parent="0T9Lj9NKAyRKnuzEVl1E-161" vertex="1">
          <mxGeometry y="540" width="220" height="30" as="geometry" />
        </mxCell>
        <mxCell id="nv3WrUS5gKoo7LWLeV3Z-46" value="#&amp;nbsp;menuBar: MenuBar [0..1]" style="text;html=1;strokeColor=none;fillColor=none;align=center;verticalAlign=middle;whiteSpace=wrap;rounded=0;" parent="0T9Lj9NKAyRKnuzEVl1E-161" vertex="1">
          <mxGeometry y="570" width="220" height="30" as="geometry" />
        </mxCell>
        <mxCell id="nv3WrUS5gKoo7LWLeV3Z-38" value="#&amp;nbsp;mutRate: TextField [0..1]" style="text;html=1;strokeColor=none;fillColor=none;align=center;verticalAlign=middle;whiteSpace=wrap;rounded=0;" parent="0T9Lj9NKAyRKnuzEVl1E-161" vertex="1">
          <mxGeometry y="600" width="220" height="30" as="geometry" />
        </mxCell>
        <mxCell id="nv3WrUS5gKoo7LWLeV3Z-45" value="#&amp;nbsp;neuralDisplay: NeuralDisplay [0..1]" style="text;html=1;strokeColor=none;fillColor=none;align=center;verticalAlign=middle;whiteSpace=wrap;rounded=0;" parent="0T9Lj9NKAyRKnuzEVl1E-161" vertex="1">
          <mxGeometry y="630" width="220" height="30" as="geometry" />
        </mxCell>
        <mxCell id="nv3WrUS5gKoo7LWLeV3Z-34" value="#&amp;nbsp;neuronsPerLayerLabel: Label [0..1]" style="text;html=1;strokeColor=none;fillColor=none;align=center;verticalAlign=middle;whiteSpace=wrap;rounded=0;" parent="0T9Lj9NKAyRKnuzEVl1E-161" vertex="1">
          <mxGeometry y="660" width="220" height="30" as="geometry" />
        </mxCell>
        <mxCell id="nv3WrUS5gKoo7LWLeV3Z-39" value="#&amp;nbsp;neuronsPerLayerTextField: TextField [0..1]" style="text;html=1;strokeColor=none;fillColor=none;align=center;verticalAlign=middle;whiteSpace=wrap;rounded=0;" parent="0T9Lj9NKAyRKnuzEVl1E-161" vertex="1">
          <mxGeometry y="690" width="220" height="30" as="geometry" />
        </mxCell>
        <mxCell id="nv3WrUS5gKoo7LWLeV3Z-35" value="#&amp;nbsp;noCars: TextField [0..1]" style="text;html=1;strokeColor=none;fillColor=none;align=center;verticalAlign=middle;whiteSpace=wrap;rounded=0;" parent="0T9Lj9NKAyRKnuzEVl1E-161" vertex="1">
          <mxGeometry y="720" width="220" height="30" as="geometry" />
        </mxCell>
        <mxCell id="nv3WrUS5gKoo7LWLeV3Z-44" value="#&amp;nbsp;pause: boolean [1]" style="text;html=1;strokeColor=none;fillColor=none;align=center;verticalAlign=middle;whiteSpace=wrap;rounded=0;" parent="0T9Lj9NKAyRKnuzEVl1E-161" vertex="1">
          <mxGeometry y="750" width="220" height="30" as="geometry" />
        </mxCell>
        <mxCell id="nv3WrUS5gKoo7LWLeV3Z-40" value="#&amp;nbsp;play: Button [0..1]" style="text;html=1;strokeColor=none;fillColor=none;align=center;verticalAlign=middle;whiteSpace=wrap;rounded=0;" parent="0T9Lj9NKAyRKnuzEVl1E-161" vertex="1">
          <mxGeometry y="780" width="220" height="30" as="geometry" />
        </mxCell>
        <mxCell id="nv3WrUS5gKoo7LWLeV3Z-37" value="#&amp;nbsp;player: MediaPlayer [0..1]" style="text;html=1;strokeColor=none;fillColor=none;align=center;verticalAlign=middle;whiteSpace=wrap;rounded=0;" parent="0T9Lj9NKAyRKnuzEVl1E-161" vertex="1">
          <mxGeometry y="810" width="220" height="30" as="geometry" />
        </mxCell>
        <mxCell id="nv3WrUS5gKoo7LWLeV3Z-43" value="#&amp;nbsp;recommended: Button [0..1]" style="text;html=1;strokeColor=none;fillColor=none;align=center;verticalAlign=middle;whiteSpace=wrap;rounded=0;" parent="0T9Lj9NKAyRKnuzEVl1E-161" vertex="1">
          <mxGeometry y="840" width="220" height="30" as="geometry" />
        </mxCell>
        <mxCell id="nv3WrUS5gKoo7LWLeV3Z-25" value="#&amp;nbsp;redSlider: Label [0..1]" style="text;html=1;strokeColor=none;fillColor=none;align=center;verticalAlign=middle;whiteSpace=wrap;rounded=0;" parent="0T9Lj9NKAyRKnuzEVl1E-161" vertex="1">
          <mxGeometry y="870" width="220" height="30" as="geometry" />
        </mxCell>
        <mxCell id="nv3WrUS5gKoo7LWLeV3Z-41" value="#&amp;nbsp;reset: Button [0..1]" style="text;html=1;strokeColor=none;fillColor=none;align=center;verticalAlign=middle;whiteSpace=wrap;rounded=0;" parent="0T9Lj9NKAyRKnuzEVl1E-161" vertex="1">
          <mxGeometry y="900" width="220" height="30" as="geometry" />
        </mxCell>
        <mxCell id="nv3WrUS5gKoo7LWLeV3Z-42" value="#&amp;nbsp;root: BorderPane [0..1]" style="text;html=1;strokeColor=none;fillColor=none;align=center;verticalAlign=middle;whiteSpace=wrap;rounded=0;" parent="0T9Lj9NKAyRKnuzEVl1E-161" vertex="1">
          <mxGeometry y="930" width="220" height="30" as="geometry" />
        </mxCell>
        <mxCell id="nv3WrUS5gKoo7LWLeV3Z-31" value="#&amp;nbsp;save: Button [0..1]" style="text;html=1;strokeColor=none;fillColor=none;align=center;verticalAlign=middle;whiteSpace=wrap;rounded=0;" parent="0T9Lj9NKAyRKnuzEVl1E-161" vertex="1">
          <mxGeometry y="960" width="220" height="30" as="geometry" />
        </mxCell>
        <mxCell id="nv3WrUS5gKoo7LWLeV3Z-30" value="#&amp;nbsp;sliderBlue: Slider [0..1]" style="text;html=1;strokeColor=none;fillColor=none;align=center;verticalAlign=middle;whiteSpace=wrap;rounded=0;" parent="0T9Lj9NKAyRKnuzEVl1E-161" vertex="1">
          <mxGeometry y="990" width="220" height="30" as="geometry" />
        </mxCell>
        <mxCell id="nv3WrUS5gKoo7LWLeV3Z-36" value="#&amp;nbsp;sliderGreen: Slider [0..1]" style="text;html=1;strokeColor=none;fillColor=none;align=center;verticalAlign=middle;whiteSpace=wrap;rounded=0;" parent="0T9Lj9NKAyRKnuzEVl1E-161" vertex="1">
          <mxGeometry y="1020" width="220" height="30" as="geometry" />
        </mxCell>
        <mxCell id="nv3WrUS5gKoo7LWLeV3Z-32" value="#&amp;nbsp;sliderRed: Slider [0..1]" style="text;html=1;strokeColor=none;fillColor=none;align=center;verticalAlign=middle;whiteSpace=wrap;rounded=0;" parent="0T9Lj9NKAyRKnuzEVl1E-161" vertex="1">
          <mxGeometry y="1050" width="220" height="30" as="geometry" />
        </mxCell>
        <mxCell id="nv3WrUS5gKoo7LWLeV3Z-27" value="#&amp;nbsp;start: Button [0..1]" style="text;html=1;strokeColor=none;fillColor=none;align=center;verticalAlign=middle;whiteSpace=wrap;rounded=0;" parent="0T9Lj9NKAyRKnuzEVl1E-161" vertex="1">
          <mxGeometry y="1080" width="220" height="30" as="geometry" />
        </mxCell>
        <mxCell id="nv3WrUS5gKoo7LWLeV3Z-29" value="#&amp;nbsp;started: BooleanProperty [0..1]" style="text;html=1;strokeColor=none;fillColor=none;align=center;verticalAlign=middle;whiteSpace=wrap;rounded=0;" parent="0T9Lj9NKAyRKnuzEVl1E-161" vertex="1">
          <mxGeometry y="1110" width="220" height="30" as="geometry" />
        </mxCell>
        <mxCell id="nv3WrUS5gKoo7LWLeV3Z-26" value="#&amp;nbsp;timer: AnimationTimer [0..1]" style="text;html=1;strokeColor=none;fillColor=none;align=center;verticalAlign=middle;whiteSpace=wrap;rounded=0;" parent="0T9Lj9NKAyRKnuzEVl1E-161" vertex="1">
          <mxGeometry y="1140" width="220" height="30" as="geometry" />
        </mxCell>
        <mxCell id="nv3WrUS5gKoo7LWLeV3Z-47" value="#&amp;nbsp;title: Label [0..1]" style="text;html=1;strokeColor=none;fillColor=none;align=center;verticalAlign=middle;whiteSpace=wrap;rounded=0;" parent="0T9Lj9NKAyRKnuzEVl1E-161" vertex="1">
          <mxGeometry y="1170" width="220" height="30" as="geometry" />
        </mxCell>
        <mxCell id="nv3WrUS5gKoo7LWLeV3Z-49" value="#&amp;nbsp;userInterface: GridPane [0..1]" style="text;html=1;strokeColor=none;fillColor=none;align=center;verticalAlign=middle;whiteSpace=wrap;rounded=0;" parent="0T9Lj9NKAyRKnuzEVl1E-161" vertex="1">
          <mxGeometry y="1200" width="220" height="30" as="geometry" />
        </mxCell>
        <mxCell id="nv3WrUS5gKoo7LWLeV3Z-48" value="#&amp;nbsp;volumeSlider: Slider [0..1]" style="text;html=1;strokeColor=none;fillColor=none;align=center;verticalAlign=middle;whiteSpace=wrap;rounded=0;" parent="0T9Lj9NKAyRKnuzEVl1E-161" vertex="1">
          <mxGeometry y="1230" width="220" height="30" as="geometry" />
        </mxCell>
        <mxCell id="nv3WrUS5gKoo7LWLeV3Z-50" value="#&amp;nbsp;volumeSliderImage: ImageView [0..1]" style="text;html=1;strokeColor=none;fillColor=none;align=center;verticalAlign=middle;whiteSpace=wrap;rounded=0;" parent="0T9Lj9NKAyRKnuzEVl1E-161" vertex="1">
          <mxGeometry y="1260" width="220" height="30" as="geometry" />
        </mxCell>
        <mxCell id="nv3WrUS5gKoo7LWLeV3Z-61" value="" style="line;strokeWidth=1;fillColor=none;align=left;verticalAlign=middle;spacingTop=-1;spacingLeft=3;spacingRight=3;rotatable=0;labelPosition=right;points=[];portConstraint=eastwest;strokeColor=inherit;" parent="0T9Lj9NKAyRKnuzEVl1E-161" vertex="1">
          <mxGeometry y="1290" width="220" height="8" as="geometry" />
        </mxCell>
        <mxCell id="nv3WrUS5gKoo7LWLeV3Z-64" value="+ addFitness(): void" style="text;html=1;strokeColor=none;fillColor=none;align=center;verticalAlign=middle;whiteSpace=wrap;rounded=0;" parent="0T9Lj9NKAyRKnuzEVl1E-161" vertex="1">
          <mxGeometry y="1298" width="220" height="30" as="geometry" />
        </mxCell>
        <mxCell id="nv3WrUS5gKoo7LWLeV3Z-65" value="# applySettings(): void" style="text;html=1;strokeColor=none;fillColor=none;align=center;verticalAlign=middle;whiteSpace=wrap;rounded=0;" parent="0T9Lj9NKAyRKnuzEVl1E-161" vertex="1">
          <mxGeometry y="1328" width="220" height="30" as="geometry" />
        </mxCell>
        <mxCell id="nv3WrUS5gKoo7LWLeV3Z-66" value="- calculateDistanceToPoint(sensor: Line, x: double, y: double): double" style="text;html=1;strokeColor=none;fillColor=none;align=center;verticalAlign=middle;whiteSpace=wrap;rounded=0;" parent="0T9Lj9NKAyRKnuzEVl1E-161" vertex="1">
          <mxGeometry y="1358" width="220" height="30" as="geometry" />
        </mxCell>
        <mxCell id="nv3WrUS5gKoo7LWLeV3Z-67" value="-calculateSensorsLength(): void" style="text;html=1;strokeColor=none;fillColor=none;align=center;verticalAlign=middle;whiteSpace=wrap;rounded=0;" parent="0T9Lj9NKAyRKnuzEVl1E-161" vertex="1">
          <mxGeometry y="1388" width="220" height="30" as="geometry" />
        </mxCell>
        <mxCell id="nv3WrUS5gKoo7LWLeV3Z-69" value="- checkCarCollision(): void" style="text;html=1;strokeColor=none;fillColor=none;align=center;verticalAlign=middle;whiteSpace=wrap;rounded=0;" parent="0T9Lj9NKAyRKnuzEVl1E-161" vertex="1">
          <mxGeometry y="1418" width="220" height="30" as="geometry" />
        </mxCell>
        <mxCell id="nv3WrUS5gKoo7LWLeV3Z-71" value="+ checkCollisionWithWall(order: int, car: Car): double" style="text;html=1;strokeColor=none;fillColor=none;align=center;verticalAlign=middle;whiteSpace=wrap;rounded=0;" parent="0T9Lj9NKAyRKnuzEVl1E-161" vertex="1">
          <mxGeometry y="1448" width="220" height="30" as="geometry" />
        </mxCell>
        <mxCell id="nv3WrUS5gKoo7LWLeV3Z-74" value="-checkIfAllCarsDead(): void" style="text;html=1;strokeColor=none;fillColor=none;align=center;verticalAlign=middle;whiteSpace=wrap;rounded=0;" parent="0T9Lj9NKAyRKnuzEVl1E-161" vertex="1">
          <mxGeometry y="1478" width="220" height="30" as="geometry" />
        </mxCell>
        <mxCell id="nv3WrUS5gKoo7LWLeV3Z-75" value="- checkMutateValue(): void" style="text;html=1;strokeColor=none;fillColor=none;align=center;verticalAlign=middle;whiteSpace=wrap;rounded=0;" parent="0T9Lj9NKAyRKnuzEVl1E-161" vertex="1">
          <mxGeometry y="1508" width="220" height="30" as="geometry" />
        </mxCell>
        <mxCell id="dM-SzHk5h2wBhV3TcvUz-27" value="- calculateSensorsLength(): void" style="text;html=1;strokeColor=none;fillColor=none;align=center;verticalAlign=middle;whiteSpace=wrap;rounded=0;" vertex="1" parent="0T9Lj9NKAyRKnuzEVl1E-161">
          <mxGeometry y="1538" width="220" height="30" as="geometry" />
        </mxCell>
        <mxCell id="nv3WrUS5gKoo7LWLeV3Z-73" value="-checkTextInputs(e: KeyEvent, select: TextField, noCars: TextField, mutRate: TextField, carSpeed: TextField, ang Velocity: TextField, save: Button, start: Button): void&lt;br&gt;&amp;nbsp;" style="text;html=1;strokeColor=none;fillColor=none;align=center;verticalAlign=middle;whiteSpace=wrap;rounded=0;" parent="0T9Lj9NKAyRKnuzEVl1E-161" vertex="1">
          <mxGeometry y="1568" width="220" height="112" as="geometry" />
        </mxCell>
        <mxCell id="nv3WrUS5gKoo7LWLeV3Z-70" value="-checkTextInputsComma(e: KeyEvent, select: TextField, no Cars: TextField, mutRate: TextField, carSpeed: TextField, ang Velocity: TextField, save: Button, start: Button): void&lt;br&gt;&amp;nbsp;" style="text;html=1;strokeColor=none;fillColor=none;align=center;verticalAlign=middle;whiteSpace=wrap;rounded=0;" parent="0T9Lj9NKAyRKnuzEVl1E-161" vertex="1">
          <mxGeometry y="1680" width="220" height="110" as="geometry" />
        </mxCell>
        <mxCell id="nv3WrUS5gKoo7LWLeV3Z-72" value="&lt;div&gt;-checkTextInputsDecimal(e: KeyEvent, select: TextField, no Cars: TextField, mutRate: TextField, carSpeed: TextField, ang Velocity: TextField, save: Button, start: Button)&lt;/div&gt;: void" style="text;html=1;strokeColor=none;fillColor=none;align=center;verticalAlign=middle;whiteSpace=wrap;rounded=0;" parent="0T9Lj9NKAyRKnuzEVl1E-161" vertex="1">
          <mxGeometry y="1790" width="220" height="80" as="geometry" />
        </mxCell>
        <mxCell id="nv3WrUS5gKoo7LWLeV3Z-68" value="#draw(): void" style="text;html=1;strokeColor=none;fillColor=none;align=center;verticalAlign=middle;whiteSpace=wrap;rounded=0;" parent="0T9Lj9NKAyRKnuzEVl1E-161" vertex="1">
          <mxGeometry y="1870" width="220" height="30" as="geometry" />
        </mxCell>
        <mxCell id="dM-SzHk5h2wBhV3TcvUz-24" value="+ getRoot(): BorderPane" style="text;html=1;strokeColor=none;fillColor=none;align=center;verticalAlign=middle;whiteSpace=wrap;rounded=0;" vertex="1" parent="0T9Lj9NKAyRKnuzEVl1E-161">
          <mxGeometry y="1900" width="220" height="30" as="geometry" />
        </mxCell>
        <mxCell id="dM-SzHk5h2wBhV3TcvUz-23" value="- getVolumeSlider(): void" style="text;html=1;strokeColor=none;fillColor=none;align=center;verticalAlign=middle;whiteSpace=wrap;rounded=0;" vertex="1" parent="0T9Lj9NKAyRKnuzEVl1E-161">
          <mxGeometry y="1930" width="220" height="30" as="geometry" />
        </mxCell>
        <mxCell id="dM-SzHk5h2wBhV3TcvUz-29" value="&lt;u&gt;+ getSimulationInstance(): Simulation&lt;/u&gt;" style="text;html=1;strokeColor=none;fillColor=none;align=center;verticalAlign=middle;whiteSpace=wrap;rounded=0;" vertex="1" parent="0T9Lj9NKAyRKnuzEVl1E-161">
          <mxGeometry y="1960" width="220" height="30" as="geometry" />
        </mxCell>
        <mxCell id="dM-SzHk5h2wBhV3TcvUz-25" value="+ getBorderList(): ArrayList&amp;lt;Shape&amp;gt;" style="text;html=1;strokeColor=none;fillColor=none;align=center;verticalAlign=middle;whiteSpace=wrap;rounded=0;" vertex="1" parent="0T9Lj9NKAyRKnuzEVl1E-161">
          <mxGeometry y="1990" width="220" height="30" as="geometry" />
        </mxCell>
        <mxCell id="nv3WrUS5gKoo7LWLeV3Z-77" value="+highlightButton(button: Button): void" style="text;html=1;strokeColor=none;fillColor=none;align=center;verticalAlign=middle;whiteSpace=wrap;rounded=0;" parent="0T9Lj9NKAyRKnuzEVl1E-161" vertex="1">
          <mxGeometry y="2020" width="220" height="30" as="geometry" />
        </mxCell>
        <mxCell id="nv3WrUS5gKoo7LWLeV3Z-78" value="-moveCar(): void" style="text;html=1;strokeColor=none;fillColor=none;align=center;verticalAlign=middle;whiteSpace=wrap;rounded=0;" parent="0T9Lj9NKAyRKnuzEVl1E-161" vertex="1">
          <mxGeometry y="2050" width="220" height="30" as="geometry" />
        </mxCell>
        <mxCell id="nv3WrUS5gKoo7LWLeV3Z-76" value="- removeDeadCars(): void" style="text;html=1;strokeColor=none;fillColor=none;align=center;verticalAlign=middle;whiteSpace=wrap;rounded=0;" parent="0T9Lj9NKAyRKnuzEVl1E-161" vertex="1">
          <mxGeometry y="2080" width="220" height="30" as="geometry" />
        </mxCell>
        <mxCell id="nv3WrUS5gKoo7LWLeV3Z-79" value="- showAboutWindow(): void" style="text;html=1;strokeColor=none;fillColor=none;align=center;verticalAlign=middle;whiteSpace=wrap;rounded=0;" parent="0T9Lj9NKAyRKnuzEVl1E-161" vertex="1">
          <mxGeometry y="2110" width="220" height="30" as="geometry" />
        </mxCell>
        <mxCell id="nv3WrUS5gKoo7LWLeV3Z-80" value="-showAlert(title: String, content: String): void" style="text;html=1;strokeColor=none;fillColor=none;align=center;verticalAlign=middle;whiteSpace=wrap;rounded=0;" parent="0T9Lj9NKAyRKnuzEVl1E-161" vertex="1">
          <mxGeometry y="2140" width="220" height="30" as="geometry" />
        </mxCell>
        <mxCell id="nv3WrUS5gKoo7LWLeV3Z-82" value="-showEndWindow(): void" style="text;html=1;strokeColor=none;fillColor=none;align=center;verticalAlign=middle;whiteSpace=wrap;rounded=0;" parent="0T9Lj9NKAyRKnuzEVl1E-161" vertex="1">
          <mxGeometry y="2170" width="220" height="30" as="geometry" />
        </mxCell>
        <mxCell id="dM-SzHk5h2wBhV3TcvUz-4" value="- setLengthSlider():void" style="text;html=1;strokeColor=none;fillColor=none;align=center;verticalAlign=middle;whiteSpace=wrap;rounded=0;" vertex="1" parent="0T9Lj9NKAyRKnuzEVl1E-161">
          <mxGeometry y="2200" width="220" height="30" as="geometry" />
        </mxCell>
        <mxCell id="dM-SzHk5h2wBhV3TcvUz-5" value="- setPlace(): void" style="text;html=1;strokeColor=none;fillColor=none;align=center;verticalAlign=middle;whiteSpace=wrap;rounded=0;" vertex="1" parent="0T9Lj9NKAyRKnuzEVl1E-161">
          <mxGeometry y="2230" width="220" height="30" as="geometry" />
        </mxCell>
        <mxCell id="dM-SzHk5h2wBhV3TcvUz-6" value="- setupMenuBar(): void" style="text;html=1;strokeColor=none;fillColor=none;align=center;verticalAlign=middle;whiteSpace=wrap;rounded=0;" vertex="1" parent="0T9Lj9NKAyRKnuzEVl1E-161">
          <mxGeometry y="2260" width="220" height="30" as="geometry" />
        </mxCell>
        <mxCell id="dM-SzHk5h2wBhV3TcvUz-7" value="- setCheckInputs(): void" style="text;html=1;strokeColor=none;fillColor=none;align=center;verticalAlign=middle;whiteSpace=wrap;rounded=0;" vertex="1" parent="0T9Lj9NKAyRKnuzEVl1E-161">
          <mxGeometry y="2290" width="220" height="30" as="geometry" />
        </mxCell>
        <mxCell id="dM-SzHk5h2wBhV3TcvUz-8" value="- setTrack(): void" style="text;html=1;strokeColor=none;fillColor=none;align=center;verticalAlign=middle;whiteSpace=wrap;rounded=0;" vertex="1" parent="0T9Lj9NKAyRKnuzEVl1E-161">
          <mxGeometry y="2320" width="220" height="30" as="geometry" />
        </mxCell>
        <mxCell id="dM-SzHk5h2wBhV3TcvUz-9" value="- setBorders(): void" style="text;html=1;strokeColor=none;fillColor=none;align=center;verticalAlign=middle;whiteSpace=wrap;rounded=0;" vertex="1" parent="0T9Lj9NKAyRKnuzEVl1E-161">
          <mxGeometry y="2350" width="220" height="30" as="geometry" />
        </mxCell>
        <mxCell id="dM-SzHk5h2wBhV3TcvUz-11" value="-setTitle(): void" style="text;html=1;strokeColor=none;fillColor=none;align=center;verticalAlign=middle;whiteSpace=wrap;rounded=0;" vertex="1" parent="0T9Lj9NKAyRKnuzEVl1E-161">
          <mxGeometry y="2380" width="220" height="30" as="geometry" />
        </mxCell>
        <mxCell id="dM-SzHk5h2wBhV3TcvUz-13" value="- setButtons(): void" style="text;html=1;strokeColor=none;fillColor=none;align=center;verticalAlign=middle;whiteSpace=wrap;rounded=0;" vertex="1" parent="0T9Lj9NKAyRKnuzEVl1E-161">
          <mxGeometry y="2410" width="220" height="30" as="geometry" />
        </mxCell>
        <mxCell id="dM-SzHk5h2wBhV3TcvUz-12" value="- setGenerationsOfCars(): void" style="text;html=1;strokeColor=none;fillColor=none;align=center;verticalAlign=middle;whiteSpace=wrap;rounded=0;" vertex="1" parent="0T9Lj9NKAyRKnuzEVl1E-161">
          <mxGeometry y="2440" width="220" height="30" as="geometry" />
        </mxCell>
        <mxCell id="dM-SzHk5h2wBhV3TcvUz-20" value="- setTextFieldNbCars(): void" style="text;html=1;strokeColor=none;fillColor=none;align=center;verticalAlign=middle;whiteSpace=wrap;rounded=0;" vertex="1" parent="0T9Lj9NKAyRKnuzEVl1E-161">
          <mxGeometry y="2470" width="220" height="30" as="geometry" />
        </mxCell>
        <mxCell id="dM-SzHk5h2wBhV3TcvUz-14" value="- setColorBox(): void" style="text;html=1;strokeColor=none;fillColor=none;align=center;verticalAlign=middle;whiteSpace=wrap;rounded=0;" vertex="1" parent="0T9Lj9NKAyRKnuzEVl1E-161">
          <mxGeometry y="2500" width="220" height="30" as="geometry" />
        </mxCell>
        <mxCell id="dM-SzHk5h2wBhV3TcvUz-21" value="- setTextFieldCarSpeed(): void" style="text;html=1;strokeColor=none;fillColor=none;align=center;verticalAlign=middle;whiteSpace=wrap;rounded=0;" vertex="1" parent="0T9Lj9NKAyRKnuzEVl1E-161">
          <mxGeometry y="2530" width="220" height="30" as="geometry" />
        </mxCell>
        <mxCell id="dM-SzHk5h2wBhV3TcvUz-22" value="- setTextFieldAngularVelocity(): void" style="text;html=1;strokeColor=none;fillColor=none;align=center;verticalAlign=middle;whiteSpace=wrap;rounded=0;" vertex="1" parent="0T9Lj9NKAyRKnuzEVl1E-161">
          <mxGeometry y="2560" width="220" height="30" as="geometry" />
        </mxCell>
        <mxCell id="dM-SzHk5h2wBhV3TcvUz-19" value="- setTextFieldMutRate(): void" style="text;html=1;strokeColor=none;fillColor=none;align=center;verticalAlign=middle;whiteSpace=wrap;rounded=0;" vertex="1" parent="0T9Lj9NKAyRKnuzEVl1E-161">
          <mxGeometry y="2590" width="220" height="30" as="geometry" />
        </mxCell>
        <mxCell id="dM-SzHk5h2wBhV3TcvUz-15" value="- setColorSelector(): void" style="text;html=1;strokeColor=none;fillColor=none;align=center;verticalAlign=middle;whiteSpace=wrap;rounded=0;" vertex="1" parent="0T9Lj9NKAyRKnuzEVl1E-161">
          <mxGeometry y="2620" width="220" height="30" as="geometry" />
        </mxCell>
        <mxCell id="dM-SzHk5h2wBhV3TcvUz-16" value="- setPlayer(): void" style="text;html=1;strokeColor=none;fillColor=none;align=center;verticalAlign=middle;whiteSpace=wrap;rounded=0;" vertex="1" parent="0T9Lj9NKAyRKnuzEVl1E-161">
          <mxGeometry y="2650" width="220" height="30" as="geometry" />
        </mxCell>
        <mxCell id="dM-SzHk5h2wBhV3TcvUz-17" value="- setupSliders(): void" style="text;html=1;strokeColor=none;fillColor=none;align=center;verticalAlign=middle;whiteSpace=wrap;rounded=0;" vertex="1" parent="0T9Lj9NKAyRKnuzEVl1E-161">
          <mxGeometry y="2680" width="220" height="30" as="geometry" />
        </mxCell>
        <mxCell id="dM-SzHk5h2wBhV3TcvUz-18" value="- setUserInterface(): void" style="text;html=1;strokeColor=none;fillColor=none;align=center;verticalAlign=middle;whiteSpace=wrap;rounded=0;" vertex="1" parent="0T9Lj9NKAyRKnuzEVl1E-161">
          <mxGeometry y="2710" width="220" height="30" as="geometry" />
        </mxCell>
        <mxCell id="dM-SzHk5h2wBhV3TcvUz-10" value="- setCarPane(): void" style="text;html=1;strokeColor=none;fillColor=none;align=center;verticalAlign=middle;whiteSpace=wrap;rounded=0;" vertex="1" parent="0T9Lj9NKAyRKnuzEVl1E-161">
          <mxGeometry y="2740" width="220" height="30" as="geometry" />
        </mxCell>
        <mxCell id="dM-SzHk5h2wBhV3TcvUz-3" value="- setBackgroundBox()" style="text;html=1;strokeColor=none;fillColor=none;align=center;verticalAlign=middle;whiteSpace=wrap;rounded=0;" vertex="1" parent="0T9Lj9NKAyRKnuzEVl1E-161">
          <mxGeometry y="2770" width="220" height="30" as="geometry" />
        </mxCell>
        <mxCell id="dM-SzHk5h2wBhV3TcvUz-26" value="+ start(): void" style="text;html=1;strokeColor=none;fillColor=none;align=center;verticalAlign=middle;whiteSpace=wrap;rounded=0;" vertex="1" parent="0T9Lj9NKAyRKnuzEVl1E-161">
          <mxGeometry y="2800" width="220" height="30" as="geometry" />
        </mxCell>
        <mxCell id="dM-SzHk5h2wBhV3TcvUz-28" value="+ setupNextGeneration(): void" style="text;html=1;strokeColor=none;fillColor=none;align=center;verticalAlign=middle;whiteSpace=wrap;rounded=0;" vertex="1" parent="0T9Lj9NKAyRKnuzEVl1E-161">
          <mxGeometry y="2830" width="220" height="30" as="geometry" />
        </mxCell>
        <mxCell id="nv3WrUS5gKoo7LWLeV3Z-81" value="-showNeuralDisplay(car: Car)" style="text;html=1;strokeColor=none;fillColor=none;align=center;verticalAlign=middle;whiteSpace=wrap;rounded=0;" parent="0T9Lj9NKAyRKnuzEVl1E-161" vertex="1">
          <mxGeometry y="2860" width="220" height="30" as="geometry" />
        </mxCell>
        <mxCell id="DzD_gmXR54Xh9kk08HtV-0" value="Welcome.FXML" style="html=1;align=center;verticalAlign=middle;dashed=0;whiteSpace=wrap;" parent="WIyWlLk6GJQsqaUBKTNV-1" vertex="1">
          <mxGeometry x="-700" y="1590" width="180" height="60" as="geometry" />
        </mxCell>
        <mxCell id="239VDCw83_5TDXjA1n3P-36" value="" style="html=1;labelBackgroundColor=#ffffff;startArrow=none;startFill=0;startSize=6;endArrow=classic;endFill=1;endSize=6;jettySize=auto;orthogonalLoop=1;strokeWidth=1;dashed=1;fontSize=14;rounded=0;entryX=0.496;entryY=0;entryDx=0;entryDy=0;exitX=0.498;exitY=1.096;exitDx=0;exitDy=0;exitPerimeter=0;entryPerimeter=0;" parent="WIyWlLk6GJQsqaUBKTNV-1" source="U0fnFoimIb6kzD0exgC3-183" target="U0fnFoimIb6kzD0exgC3-133" edge="1">
          <mxGeometry width="60" height="60" relative="1" as="geometry">
            <mxPoint x="-734.038" y="603.0139999999999" as="sourcePoint" />
            <mxPoint x="-733.0000000000002" y="640" as="targetPoint" />
          </mxGeometry>
        </mxCell>
        <mxCell id="239VDCw83_5TDXjA1n3P-37" value="javafx.scene.shape.Circle" style="swimlane;fontStyle=2;align=center;verticalAlign=top;childLayout=stackLayout;horizontal=1;startSize=26;horizontalStack=0;resizeParent=1;resizeLast=0;collapsible=1;marginBottom=0;rounded=0;shadow=0;strokeWidth=1;" parent="WIyWlLk6GJQsqaUBKTNV-1" vertex="1">
          <mxGeometry x="-828" y="20" width="190" height="34" as="geometry">
            <mxRectangle x="230" y="140" width="160" height="26" as="alternateBounds" />
          </mxGeometry>
        </mxCell>
        <mxCell id="239VDCw83_5TDXjA1n3P-38" value="" style="line;html=1;strokeWidth=1;align=left;verticalAlign=middle;spacingTop=-1;spacingLeft=3;spacingRight=3;rotatable=0;labelPosition=right;points=[];portConstraint=eastwest;" parent="239VDCw83_5TDXjA1n3P-37" vertex="1">
          <mxGeometry y="26" width="190" height="8" as="geometry" />
        </mxCell>
        <mxCell id="239VDCw83_5TDXjA1n3P-44" value="Extends" style="endArrow=block;endSize=16;endFill=0;html=1;rounded=0;exitX=0.486;exitY=-0.006;exitDx=0;exitDy=0;entryX=0.494;entryY=0.875;entryDx=0;entryDy=0;entryPerimeter=0;exitPerimeter=0;" parent="WIyWlLk6GJQsqaUBKTNV-1" source="U0fnFoimIb6kzD0exgC3-162" target="239VDCw83_5TDXjA1n3P-38" edge="1">
          <mxGeometry width="160" relative="1" as="geometry">
            <mxPoint x="-733.0000000000002" y="100" as="sourcePoint" />
            <mxPoint x="-360" y="70" as="targetPoint" />
          </mxGeometry>
        </mxCell>
        <mxCell id="239VDCw83_5TDXjA1n3P-45" value="" style="endArrow=diamondThin;endFill=0;endSize=24;html=1;rounded=0;exitX=0.5;exitY=0;exitDx=0;exitDy=0;entryX=0.5;entryY=1;entryDx=0;entryDy=0;" parent="WIyWlLk6GJQsqaUBKTNV-1" source="0T9Lj9NKAyRKnuzEVl1E-12" target="0T9Lj9NKAyRKnuzEVl1E-0" edge="1">
          <mxGeometry width="160" relative="1" as="geometry">
            <mxPoint x="-410" y="460" as="sourcePoint" />
            <mxPoint x="-340" y="430" as="targetPoint" />
          </mxGeometry>
        </mxCell>
        <mxCell id="239VDCw83_5TDXjA1n3P-46" value="" style="endArrow=diamondThin;endFill=1;endSize=24;html=1;rounded=0;exitX=0.469;exitY=0.003;exitDx=0;exitDy=0;entryX=0.5;entryY=0;entryDx=0;entryDy=0;exitPerimeter=0;" parent="WIyWlLk6GJQsqaUBKTNV-1" source="U0fnFoimIb6kzD0exgC3-100" edge="1">
          <mxGeometry width="160" relative="1" as="geometry">
            <mxPoint x="-805" y="964" as="sourcePoint" />
            <mxPoint x="-453" y="1110" as="targetPoint" />
            <Array as="points">
              <mxPoint x="-805" y="910" />
              <mxPoint x="-453" y="910" />
            </Array>
          </mxGeometry>
        </mxCell>
        <mxCell id="239VDCw83_5TDXjA1n3P-47" value="" style="endArrow=diamondThin;endFill=1;endSize=24;html=1;rounded=0;entryX=0.5;entryY=0;entryDx=0;entryDy=0;exitX=0.532;exitY=1.144;exitDx=0;exitDy=0;exitPerimeter=0;" parent="WIyWlLk6GJQsqaUBKTNV-1" source="0T9Lj9NKAyRKnuzEVl1E-40" edge="1">
          <mxGeometry width="160" relative="1" as="geometry">
            <mxPoint x="-240" y="1050" as="sourcePoint" />
            <mxPoint x="-453" y="1110" as="targetPoint" />
            <Array as="points">
              <mxPoint x="-335" y="990" />
              <mxPoint x="-450" y="990" />
            </Array>
          </mxGeometry>
        </mxCell>
        <mxCell id="239VDCw83_5TDXjA1n3P-48" value="" style="endArrow=diamondThin;endFill=1;endSize=24;html=1;rounded=0;entryX=0;entryY=0.03;entryDx=0;entryDy=0;entryPerimeter=0;exitX=0.5;exitY=0;exitDx=0;exitDy=0;" parent="WIyWlLk6GJQsqaUBKTNV-1" source="U0fnFoimIb6kzD0exgC3-185" edge="1">
          <mxGeometry width="160" relative="1" as="geometry">
            <mxPoint x="-1155" y="180" as="sourcePoint" />
            <mxPoint x="-906" y="115.05999999999995" as="targetPoint" />
            <Array as="points">
              <mxPoint x="-1155" y="115" />
            </Array>
          </mxGeometry>
        </mxCell>
        <mxCell id="239VDCw83_5TDXjA1n3P-50" value="" style="endArrow=diamondThin;endFill=0;endSize=24;html=1;rounded=0;exitX=0.5;exitY=0;exitDx=0;exitDy=0;entryX=0.5;entryY=1;entryDx=0;entryDy=0;" parent="WIyWlLk6GJQsqaUBKTNV-1" source="0T9Lj9NKAyRKnuzEVl1E-161" target="0T9Lj9NKAyRKnuzEVl1E-156" edge="1">
          <mxGeometry width="160" relative="1" as="geometry">
            <mxPoint x="-1220" y="790" as="sourcePoint" />
            <mxPoint x="-1060" y="790" as="targetPoint" />
          </mxGeometry>
        </mxCell>
        <mxCell id="239VDCw83_5TDXjA1n3P-51" value="" style="endArrow=diamondThin;endFill=0;endSize=24;html=1;rounded=0;entryX=1;entryY=0.25;entryDx=0;entryDy=0;exitX=0;exitY=0.25;exitDx=0;exitDy=0;" parent="WIyWlLk6GJQsqaUBKTNV-1" source="0T9Lj9NKAyRKnuzEVl1E-161" target="0T9Lj9NKAyRKnuzEVl1E-92" edge="1">
          <mxGeometry width="160" relative="1" as="geometry">
            <mxPoint x="-1330" y="831" as="sourcePoint" />
            <mxPoint x="-1225" y="747" as="targetPoint" />
          </mxGeometry>
        </mxCell>
        <mxCell id="239VDCw83_5TDXjA1n3P-52" value="" style="endArrow=diamondThin;endFill=1;endSize=24;html=1;rounded=0;exitX=1;exitY=0.25;exitDx=0;exitDy=0;entryX=0;entryY=0.25;entryDx=0;entryDy=0;" parent="WIyWlLk6GJQsqaUBKTNV-1" source="0T9Lj9NKAyRKnuzEVl1E-161" target="0T9Lj9NKAyRKnuzEVl1E-118" edge="1">
          <mxGeometry width="160" relative="1" as="geometry">
            <mxPoint x="-1080" y="730" as="sourcePoint" />
            <mxPoint x="-920" y="730" as="targetPoint" />
          </mxGeometry>
        </mxCell>
        <mxCell id="239VDCw83_5TDXjA1n3P-53" value="" style="endArrow=diamondThin;endFill=1;endSize=24;html=1;rounded=0;exitX=0.5;exitY=0;exitDx=0;exitDy=0;" parent="WIyWlLk6GJQsqaUBKTNV-1" source="0T9Lj9NKAyRKnuzEVl1E-137" target="0T9Lj9NKAyRKnuzEVl1E-118" edge="1">
          <mxGeometry width="160" relative="1" as="geometry">
            <mxPoint x="-1130" y="950" as="sourcePoint" />
            <mxPoint x="-1040" y="960" as="targetPoint" />
            <Array as="points">
              <mxPoint x="-1050" y="1270" />
            </Array>
          </mxGeometry>
        </mxCell>
        <mxCell id="239VDCw83_5TDXjA1n3P-56" value="" style="endArrow=diamondThin;endFill=0;endSize=24;html=1;rounded=0;entryX=1.002;entryY=0.008;entryDx=0;entryDy=0;entryPerimeter=0;" parent="WIyWlLk6GJQsqaUBKTNV-1" target="0T9Lj9NKAyRKnuzEVl1E-161" edge="1">
          <mxGeometry width="160" relative="1" as="geometry">
            <mxPoint x="-906" y="561.5525519467421" as="sourcePoint" />
            <mxPoint x="-970" y="590" as="targetPoint" />
          </mxGeometry>
        </mxCell>
        <mxCell id="239VDCw83_5TDXjA1n3P-57" value="" style="endArrow=diamondThin;endFill=1;endSize=24;html=1;rounded=0;entryX=0.48;entryY=0.002;entryDx=0;entryDy=0;entryPerimeter=0;exitX=-0.003;exitY=0.872;exitDx=0;exitDy=0;exitPerimeter=0;" parent="WIyWlLk6GJQsqaUBKTNV-1" source="U0fnFoimIb6kzD0exgC3-183" target="U0fnFoimIb6kzD0exgC3-100" edge="1">
          <mxGeometry width="160" relative="1" as="geometry">
            <mxPoint x="-873.0179948586119" y="602" as="sourcePoint" />
            <mxPoint x="-805" y="964" as="targetPoint" />
            <Array as="points">
              <mxPoint x="-950" y="740" />
            </Array>
          </mxGeometry>
        </mxCell>
        <mxCell id="239VDCw83_5TDXjA1n3P-58" value="" style="endArrow=diamondThin;endFill=1;endSize=24;html=1;rounded=0;entryX=0.5;entryY=0;entryDx=0;entryDy=0;exitX=1;exitY=0.5;exitDx=0;exitDy=0;" parent="WIyWlLk6GJQsqaUBKTNV-1" source="U0fnFoimIb6kzD0exgC3-177" edge="1">
          <mxGeometry width="160" relative="1" as="geometry">
            <mxPoint x="-560" y="477.10622710622715" as="sourcePoint" />
            <mxPoint x="-453" y="1110" as="targetPoint" />
            <Array as="points">
              <mxPoint x="-460" y="550" />
            </Array>
          </mxGeometry>
        </mxCell>
        <mxCell id="U0fnFoimIb6kzD0exgC3-40" value="SelfDrivingCar   (MAIN)" style="swimlane;fontStyle=2;align=center;verticalAlign=top;childLayout=stackLayout;horizontal=1;startSize=26;horizontalStack=0;resizeParent=1;resizeLast=0;collapsible=1;marginBottom=0;rounded=0;shadow=0;strokeWidth=1;" parent="WIyWlLk6GJQsqaUBKTNV-1" vertex="1">
          <mxGeometry x="-1090" y="816" width="160" height="86" as="geometry">
            <mxRectangle x="230" y="140" width="160" height="26" as="alternateBounds" />
          </mxGeometry>
        </mxCell>
        <mxCell id="U0fnFoimIb6kzD0exgC3-41" value="" style="line;html=1;strokeWidth=1;align=left;verticalAlign=middle;spacingTop=-1;spacingLeft=3;spacingRight=3;rotatable=0;labelPosition=right;points=[];portConstraint=eastwest;" parent="U0fnFoimIb6kzD0exgC3-40" vertex="1">
          <mxGeometry y="26" width="160" height="8" as="geometry" />
        </mxCell>
        <mxCell id="U0fnFoimIb6kzD0exgC3-42" value="+ start(PrimaryStage): void" style="text;align=left;verticalAlign=top;spacingLeft=4;spacingRight=4;overflow=hidden;rotatable=0;points=[[0,0.5],[1,0.5]];portConstraint=eastwest;fontStyle=0" parent="U0fnFoimIb6kzD0exgC3-40" vertex="1">
          <mxGeometry y="34" width="160" height="26" as="geometry" />
        </mxCell>
        <mxCell id="U0fnFoimIb6kzD0exgC3-43" value="+main(String[]): void" style="text;align=left;verticalAlign=top;spacingLeft=4;spacingRight=4;overflow=hidden;rotatable=0;points=[[0,0.5],[1,0.5]];portConstraint=eastwest;fontStyle=4" parent="U0fnFoimIb6kzD0exgC3-40" vertex="1">
          <mxGeometry y="60" width="160" height="26" as="geometry" />
        </mxCell>
        <mxCell id="U0fnFoimIb6kzD0exgC3-100" value="NeuralDisplay" style="swimlane;fontStyle=2;align=center;verticalAlign=top;childLayout=stackLayout;horizontal=1;startSize=26;horizontalStack=0;resizeParent=1;resizeLast=0;collapsible=1;marginBottom=0;rounded=0;shadow=0;strokeWidth=1;" parent="WIyWlLk6GJQsqaUBKTNV-1" vertex="1">
          <mxGeometry x="-940" y="974" width="290" height="416" as="geometry">
            <mxRectangle x="230" y="140" width="160" height="26" as="alternateBounds" />
          </mxGeometry>
        </mxCell>
        <mxCell id="U0fnFoimIb6kzD0exgC3-101" value="&lt;span style=&quot;color: rgb(0, 0, 0); font-family: Helvetica; font-size: 12px; font-style: normal; font-variant-ligatures: normal; font-variant-caps: normal; font-weight: 400; letter-spacing: normal; orphans: 2; text-align: left; text-indent: 0px; text-transform: none; widows: 2; word-spacing: 0px; -webkit-text-stroke-width: 0px; background-color: rgb(251, 251, 251); text-decoration: underline; float: none; display: inline !important;&quot;&gt;- WIDTH: int&lt;/span&gt;" style="text;whiteSpace=wrap;html=1;" parent="U0fnFoimIb6kzD0exgC3-100" vertex="1">
          <mxGeometry y="26" width="290" height="24" as="geometry" />
        </mxCell>
        <mxCell id="U0fnFoimIb6kzD0exgC3-102" value="&lt;span style=&quot;color: rgb(0, 0, 0); font-family: Helvetica; font-size: 12px; font-style: normal; font-variant-ligatures: normal; font-variant-caps: normal; font-weight: 400; letter-spacing: normal; orphans: 2; text-align: left; text-indent: 0px; text-transform: none; widows: 2; word-spacing: 0px; -webkit-text-stroke-width: 0px; background-color: rgb(251, 251, 251); text-decoration: underline; float: none; display: inline !important;&quot;&gt;- HEIGHT: int&lt;/span&gt;" style="text;whiteSpace=wrap;html=1;" parent="U0fnFoimIb6kzD0exgC3-100" vertex="1">
          <mxGeometry y="50" width="290" height="20" as="geometry" />
        </mxCell>
        <mxCell id="U0fnFoimIb6kzD0exgC3-103" value="&lt;span style=&quot;color: rgb(0, 0, 0); font-family: Helvetica; font-size: 12px; font-style: normal; font-variant-ligatures: normal; font-variant-caps: normal; font-weight: 400; letter-spacing: normal; orphans: 2; text-align: left; text-indent: 0px; text-transform: none; widows: 2; word-spacing: 0px; -webkit-text-stroke-width: 0px; background-color: rgb(251, 251, 251); text-decoration: underline; float: none; display: inline !important;&quot;&gt;- PANE_PADDING: int&lt;/span&gt;" style="text;whiteSpace=wrap;html=1;" parent="U0fnFoimIb6kzD0exgC3-100" vertex="1">
          <mxGeometry y="70" width="290" height="20" as="geometry" />
        </mxCell>
        <mxCell id="U0fnFoimIb6kzD0exgC3-104" value="&lt;span style=&quot;color: rgb(0, 0, 0); font-family: Helvetica; font-size: 12px; font-style: normal; font-variant-ligatures: normal; font-variant-caps: normal; font-weight: 400; letter-spacing: normal; orphans: 2; text-align: left; text-indent: 0px; text-transform: none; widows: 2; word-spacing: 0px; -webkit-text-stroke-width: 0px; background-color: rgb(251, 251, 251); float: none; display: inline !important;&quot;&gt;- displayedCar: Car&lt;/span&gt;" style="text;whiteSpace=wrap;html=1;" parent="U0fnFoimIb6kzD0exgC3-100" vertex="1">
          <mxGeometry y="90" width="290" height="20" as="geometry" />
        </mxCell>
        <mxCell id="U0fnFoimIb6kzD0exgC3-105" value="&lt;span style=&quot;color: rgb(0, 0, 0); font-family: Helvetica; font-size: 12px; font-variant-ligatures: normal; font-variant-caps: normal; font-weight: 400; letter-spacing: normal; orphans: 2; text-align: left; text-indent: 0px; text-transform: none; widows: 2; word-spacing: 0px; -webkit-text-stroke-width: 0px; background-color: rgb(251, 251, 251); float: none; display: inline !important;&quot;&gt;&lt;i style=&quot;&quot;&gt;- neuralNetwork: NeuralNetwork&lt;/i&gt;&lt;/span&gt;" style="text;whiteSpace=wrap;html=1;" parent="U0fnFoimIb6kzD0exgC3-100" vertex="1">
          <mxGeometry y="110" width="290" height="20" as="geometry" />
        </mxCell>
        <mxCell id="U0fnFoimIb6kzD0exgC3-106" value="&lt;span style=&quot;color: rgb(0, 0, 0); font-family: Helvetica; font-size: 12px; font-variant-ligatures: normal; font-variant-caps: normal; font-weight: 400; letter-spacing: normal; orphans: 2; text-align: left; text-indent: 0px; text-transform: none; widows: 2; word-spacing: 0px; -webkit-text-stroke-width: 0px; background-color: rgb(251, 251, 251); float: none; display: inline !important;&quot;&gt;&lt;i style=&quot;&quot;&gt;- activations: double[][]&lt;/i&gt;&lt;/span&gt;" style="text;whiteSpace=wrap;html=1;" parent="U0fnFoimIb6kzD0exgC3-100" vertex="1">
          <mxGeometry y="130" width="290" height="20" as="geometry" />
        </mxCell>
        <mxCell id="U0fnFoimIb6kzD0exgC3-107" value="&lt;span style=&quot;color: rgb(0, 0, 0); font-family: Helvetica; font-size: 12px; font-variant-ligatures: normal; font-variant-caps: normal; font-weight: 400; letter-spacing: normal; orphans: 2; text-align: left; text-indent: 0px; text-transform: none; widows: 2; word-spacing: 0px; -webkit-text-stroke-width: 0px; background-color: rgb(251, 251, 251); float: none; display: inline !important;&quot;&gt;&lt;i style=&quot;&quot;&gt;- neuralNetwork: NeuralNetwork&lt;/i&gt;&lt;/span&gt;" style="text;whiteSpace=wrap;html=1;" parent="U0fnFoimIb6kzD0exgC3-100" vertex="1">
          <mxGeometry y="150" width="290" height="20" as="geometry" />
        </mxCell>
        <mxCell id="U0fnFoimIb6kzD0exgC3-108" value="&lt;span style=&quot;color: rgb(0, 0, 0); font-family: Helvetica; font-size: 12px; font-variant-ligatures: normal; font-variant-caps: normal; font-weight: 400; letter-spacing: normal; orphans: 2; text-align: left; text-indent: 0px; text-transform: none; widows: 2; word-spacing: 0px; -webkit-text-stroke-width: 0px; background-color: rgb(251, 251, 251); float: none; display: inline !important;&quot;&gt;&lt;i style=&quot;&quot;&gt;- layers: HiddenLayer[]&lt;/i&gt;&lt;/span&gt;" style="text;whiteSpace=wrap;html=1;" parent="U0fnFoimIb6kzD0exgC3-100" vertex="1">
          <mxGeometry y="170" width="290" height="20" as="geometry" />
        </mxCell>
        <mxCell id="U0fnFoimIb6kzD0exgC3-109" value="&lt;span style=&quot;color: rgb(0, 0, 0); font-family: Helvetica; font-size: 12px; font-variant-ligatures: normal; font-variant-caps: normal; font-weight: 400; letter-spacing: normal; orphans: 2; text-align: left; text-indent: 0px; text-transform: none; widows: 2; word-spacing: 0px; -webkit-text-stroke-width: 0px; background-color: rgb(251, 251, 251); float: none; display: inline !important;&quot;&gt;&lt;i style=&quot;&quot;&gt;- nbLayers: int[]&lt;/i&gt;&lt;/span&gt;" style="text;whiteSpace=wrap;html=1;" parent="U0fnFoimIb6kzD0exgC3-100" vertex="1">
          <mxGeometry y="190" width="290" height="20" as="geometry" />
        </mxCell>
        <mxCell id="U0fnFoimIb6kzD0exgC3-110" value="&lt;span style=&quot;color: rgb(0, 0, 0); font-family: Helvetica; font-size: 12px; font-variant-ligatures: normal; font-variant-caps: normal; font-weight: 400; letter-spacing: normal; orphans: 2; text-align: left; text-indent: 0px; text-transform: none; widows: 2; word-spacing: 0px; -webkit-text-stroke-width: 0px; background-color: rgb(251, 251, 251); float: none; display: inline !important;&quot;&gt;&lt;i style=&quot;&quot;&gt;- lineWeights: ArrayList&amp;lt;Line&amp;gt;&lt;/i&gt;&lt;/span&gt;" style="text;whiteSpace=wrap;html=1;" parent="U0fnFoimIb6kzD0exgC3-100" vertex="1">
          <mxGeometry y="210" width="290" height="20" as="geometry" />
        </mxCell>
        <mxCell id="U0fnFoimIb6kzD0exgC3-111" value="&lt;span style=&quot;color: rgb(0, 0, 0); font-family: Helvetica; font-size: 12px; font-variant-ligatures: normal; font-variant-caps: normal; font-weight: 400; letter-spacing: normal; orphans: 2; text-align: left; text-indent: 0px; text-transform: none; widows: 2; word-spacing: 0px; -webkit-text-stroke-width: 0px; background-color: rgb(251, 251, 251); float: none; display: inline !important;&quot;&gt;&lt;i style=&quot;&quot;&gt;- neuronList: ArrayList&amp;lt;ArrayList&amp;lt;Circles&amp;gt;&amp;gt;&lt;/i&gt;&lt;/span&gt;" style="text;whiteSpace=wrap;html=1;" parent="U0fnFoimIb6kzD0exgC3-100" vertex="1">
          <mxGeometry y="230" width="290" height="20" as="geometry" />
        </mxCell>
        <mxCell id="U0fnFoimIb6kzD0exgC3-112" value="&lt;span style=&quot;color: rgb(0, 0, 0); font-family: Helvetica; font-size: 12px; font-variant-ligatures: normal; font-variant-caps: normal; font-weight: 400; letter-spacing: normal; orphans: 2; text-align: left; text-indent: 0px; text-transform: none; widows: 2; word-spacing: 0px; -webkit-text-stroke-width: 0px; background-color: rgb(251, 251, 251); float: none; display: inline !important;&quot;&gt;&lt;i style=&quot;&quot;&gt;+ timer: AnimationTimer&lt;/i&gt;&lt;/span&gt;" style="text;whiteSpace=wrap;html=1;" parent="U0fnFoimIb6kzD0exgC3-100" vertex="1">
          <mxGeometry y="250" width="290" height="20" as="geometry" />
        </mxCell>
        <mxCell id="U0fnFoimIb6kzD0exgC3-113" value="" style="line;html=1;strokeWidth=1;align=left;verticalAlign=middle;spacingTop=-1;spacingLeft=3;spacingRight=3;rotatable=0;labelPosition=right;points=[];portConstraint=eastwest;" parent="U0fnFoimIb6kzD0exgC3-100" vertex="1">
          <mxGeometry y="270" width="290" height="8" as="geometry" />
        </mxCell>
        <mxCell id="U0fnFoimIb6kzD0exgC3-114" value="+ NeuralDisplay(Car)" style="text;align=left;verticalAlign=top;spacingLeft=4;spacingRight=4;overflow=hidden;rotatable=0;points=[[0,0.5],[1,0.5]];portConstraint=eastwest;fontStyle=0" parent="U0fnFoimIb6kzD0exgC3-100" vertex="1">
          <mxGeometry y="278" width="290" height="26" as="geometry" />
        </mxCell>
        <mxCell id="U0fnFoimIb6kzD0exgC3-115" value="- generateNeurons(): void" style="text;align=left;verticalAlign=top;spacingLeft=4;spacingRight=4;overflow=hidden;rotatable=0;points=[[0,0.5],[1,0.5]];portConstraint=eastwest;fontStyle=0" parent="U0fnFoimIb6kzD0exgC3-100" vertex="1">
          <mxGeometry y="304" width="290" height="26" as="geometry" />
        </mxCell>
        <mxCell id="U0fnFoimIb6kzD0exgC3-116" value="- generateWeight(): void" style="text;align=left;verticalAlign=top;spacingLeft=4;spacingRight=4;overflow=hidden;rotatable=0;points=[[0,0.5],[1,0.5]];portConstraint=eastwest;fontStyle=0" parent="U0fnFoimIb6kzD0exgC3-100" vertex="1">
          <mxGeometry y="330" width="290" height="26" as="geometry" />
        </mxCell>
        <mxCell id="U0fnFoimIb6kzD0exgC3-117" value="+ getDisplayedCar(): Car" style="text;align=left;verticalAlign=top;spacingLeft=4;spacingRight=4;overflow=hidden;rotatable=0;points=[[0,0.5],[1,0.5]];portConstraint=eastwest;fontStyle=0" parent="U0fnFoimIb6kzD0exgC3-100" vertex="1">
          <mxGeometry y="356" width="290" height="26" as="geometry" />
        </mxCell>
        <mxCell id="U0fnFoimIb6kzD0exgC3-118" value="- update(): void" style="text;align=left;verticalAlign=top;spacingLeft=4;spacingRight=4;overflow=hidden;rotatable=0;points=[[0,0.5],[1,0.5]];portConstraint=eastwest;fontStyle=0" parent="U0fnFoimIb6kzD0exgC3-100" vertex="1">
          <mxGeometry y="382" width="290" height="26" as="geometry" />
        </mxCell>
        <mxCell id="U0fnFoimIb6kzD0exgC3-119" value="NeuralNetwork" style="swimlane;fontStyle=2;align=center;verticalAlign=top;childLayout=stackLayout;horizontal=1;startSize=26;horizontalStack=0;resizeParent=1;resizeLast=0;collapsible=1;marginBottom=0;rounded=0;shadow=0;strokeWidth=1;" parent="WIyWlLk6GJQsqaUBKTNV-1" vertex="1">
          <mxGeometry x="-598" y="1110" width="290" height="330" as="geometry">
            <mxRectangle x="230" y="140" width="160" height="26" as="alternateBounds" />
          </mxGeometry>
        </mxCell>
        <mxCell id="U0fnFoimIb6kzD0exgC3-120" value="&lt;span style=&quot;color: rgb(0, 0, 0); font-family: Helvetica; font-size: 12px; font-style: normal; font-variant-ligatures: normal; font-variant-caps: normal; font-weight: 400; letter-spacing: normal; orphans: 2; text-align: left; text-indent: 0px; text-transform: none; widows: 2; word-spacing: 0px; -webkit-text-stroke-width: 0px; background-color: rgb(251, 251, 251); float: none; display: inline !important;&quot;&gt;- hiddenLayers: HiddenLayer[]&lt;/span&gt;" style="text;whiteSpace=wrap;html=1;" parent="U0fnFoimIb6kzD0exgC3-119" vertex="1">
          <mxGeometry y="26" width="290" height="24" as="geometry" />
        </mxCell>
        <mxCell id="U0fnFoimIb6kzD0exgC3-121" value="&lt;span style=&quot;color: rgb(0, 0, 0); font-family: Helvetica; font-size: 12px; font-style: normal; font-variant-ligatures: normal; font-variant-caps: normal; font-weight: 400; letter-spacing: normal; orphans: 2; text-align: left; text-indent: 0px; text-transform: none; widows: 2; word-spacing: 0px; -webkit-text-stroke-width: 0px; background-color: rgb(251, 251, 251); float: none; display: inline !important;&quot;&gt;- activation: double[][]&lt;/span&gt;" style="text;whiteSpace=wrap;html=1;fontStyle=0" parent="U0fnFoimIb6kzD0exgC3-119" vertex="1">
          <mxGeometry y="50" width="290" height="20" as="geometry" />
        </mxCell>
        <mxCell id="U0fnFoimIb6kzD0exgC3-122" value="&lt;span style=&quot;color: rgb(0, 0, 0); font-family: Helvetica; font-size: 12px; font-style: normal; font-variant-ligatures: normal; font-variant-caps: normal; font-weight: 400; letter-spacing: normal; orphans: 2; text-align: left; text-indent: 0px; text-transform: none; widows: 2; word-spacing: 0px; -webkit-text-stroke-width: 0px; background-color: rgb(251, 251, 251); float: none; display: inline !important;&quot;&gt;- learningRate: float&lt;/span&gt;" style="text;whiteSpace=wrap;html=1;fontStyle=0" parent="U0fnFoimIb6kzD0exgC3-119" vertex="1">
          <mxGeometry y="70" width="290" height="20" as="geometry" />
        </mxCell>
        <mxCell id="U0fnFoimIb6kzD0exgC3-123" value="- layers: int[]" style="text;whiteSpace=wrap;html=1;" parent="U0fnFoimIb6kzD0exgC3-119" vertex="1">
          <mxGeometry y="90" width="290" height="20" as="geometry" />
        </mxCell>
        <mxCell id="U0fnFoimIb6kzD0exgC3-124" value="" style="line;html=1;strokeWidth=1;align=left;verticalAlign=middle;spacingTop=-1;spacingLeft=3;spacingRight=3;rotatable=0;labelPosition=right;points=[];portConstraint=eastwest;" parent="U0fnFoimIb6kzD0exgC3-119" vertex="1">
          <mxGeometry y="110" width="290" height="8" as="geometry" />
        </mxCell>
        <mxCell id="U0fnFoimIb6kzD0exgC3-125" value="+ NeuralNetwork(float, int[])" style="text;align=left;verticalAlign=top;spacingLeft=4;spacingRight=4;overflow=hidden;rotatable=0;points=[[0,0.5],[1,0.5]];portConstraint=eastwest;fontStyle=0" parent="U0fnFoimIb6kzD0exgC3-119" vertex="1">
          <mxGeometry y="118" width="290" height="26" as="geometry" />
        </mxCell>
        <mxCell id="U0fnFoimIb6kzD0exgC3-126" value="+ clone(): NeuralNetwork" style="text;align=left;verticalAlign=top;spacingLeft=4;spacingRight=4;overflow=hidden;rotatable=0;points=[[0,0.5],[1,0.5]];portConstraint=eastwest;fontStyle=0" parent="U0fnFoimIb6kzD0exgC3-119" vertex="1">
          <mxGeometry y="144" width="290" height="26" as="geometry" />
        </mxCell>
        <mxCell id="U0fnFoimIb6kzD0exgC3-127" value="+ predict(double[]): double[]" style="text;align=left;verticalAlign=top;spacingLeft=4;spacingRight=4;overflow=hidden;rotatable=0;points=[[0,0.5],[1,0.5]];portConstraint=eastwest;fontStyle=0" parent="U0fnFoimIb6kzD0exgC3-119" vertex="1">
          <mxGeometry y="170" width="290" height="26" as="geometry" />
        </mxCell>
        <mxCell id="U0fnFoimIb6kzD0exgC3-128" value="+ mutate(): void" style="text;align=left;verticalAlign=top;spacingLeft=4;spacingRight=4;overflow=hidden;rotatable=0;points=[[0,0.5],[1,0.5]];portConstraint=eastwest;fontStyle=0" parent="U0fnFoimIb6kzD0exgC3-119" vertex="1">
          <mxGeometry y="196" width="290" height="26" as="geometry" />
        </mxCell>
        <mxCell id="U0fnFoimIb6kzD0exgC3-129" value="+ getActivations(): double[][]" style="text;align=left;verticalAlign=top;spacingLeft=4;spacingRight=4;overflow=hidden;rotatable=0;points=[[0,0.5],[1,0.5]];portConstraint=eastwest;fontStyle=0" parent="U0fnFoimIb6kzD0exgC3-119" vertex="1">
          <mxGeometry y="222" width="290" height="26" as="geometry" />
        </mxCell>
        <mxCell id="U0fnFoimIb6kzD0exgC3-130" value="+ getHiddenLayers(): HiddenLayer[]" style="text;align=left;verticalAlign=top;spacingLeft=4;spacingRight=4;overflow=hidden;rotatable=0;points=[[0,0.5],[1,0.5]];portConstraint=eastwest;fontStyle=0" parent="U0fnFoimIb6kzD0exgC3-119" vertex="1">
          <mxGeometry y="248" width="290" height="26" as="geometry" />
        </mxCell>
        <mxCell id="U0fnFoimIb6kzD0exgC3-131" value="+ getLayers(): int[]" style="text;align=left;verticalAlign=top;spacingLeft=4;spacingRight=4;overflow=hidden;rotatable=0;points=[[0,0.5],[1,0.5]];portConstraint=eastwest;fontStyle=0" parent="U0fnFoimIb6kzD0exgC3-119" vertex="1">
          <mxGeometry y="274" width="290" height="26" as="geometry" />
        </mxCell>
        <mxCell id="U0fnFoimIb6kzD0exgC3-132" value="+ toString(): String" style="text;align=left;verticalAlign=top;spacingLeft=4;spacingRight=4;overflow=hidden;rotatable=0;points=[[0,0.5],[1,0.5]];portConstraint=eastwest;fontStyle=0" parent="U0fnFoimIb6kzD0exgC3-119" vertex="1">
          <mxGeometry y="300" width="290" height="26" as="geometry" />
        </mxCell>
        <mxCell id="U0fnFoimIb6kzD0exgC3-133" value="&lt;&lt;Interface&gt;&gt; Drivable" style="swimlane;fontStyle=2;align=center;verticalAlign=top;childLayout=stackLayout;horizontal=1;startSize=26;horizontalStack=0;resizeParent=1;resizeLast=0;collapsible=1;marginBottom=0;rounded=0;shadow=0;strokeWidth=1;" parent="WIyWlLk6GJQsqaUBKTNV-1" vertex="1">
          <mxGeometry x="-820" y="703" width="270" height="140" as="geometry">
            <mxRectangle x="230" y="140" width="160" height="26" as="alternateBounds" />
          </mxGeometry>
        </mxCell>
        <mxCell id="U0fnFoimIb6kzD0exgC3-134" value="- SENSOR_COUNT: int" style="text;align=left;verticalAlign=top;spacingLeft=4;spacingRight=4;overflow=hidden;rotatable=0;points=[[0,0.5],[1,0.5]];portConstraint=eastwest;rounded=0;shadow=0;html=0;fontStyle=4" parent="U0fnFoimIb6kzD0exgC3-133" vertex="1">
          <mxGeometry y="26" width="270" height="26" as="geometry" />
        </mxCell>
        <mxCell id="U0fnFoimIb6kzD0exgC3-135" value="" style="line;html=1;strokeWidth=1;align=left;verticalAlign=middle;spacingTop=-1;spacingLeft=3;spacingRight=3;rotatable=0;labelPosition=right;points=[];portConstraint=eastwest;" parent="U0fnFoimIb6kzD0exgC3-133" vertex="1">
          <mxGeometry y="52" width="270" height="8" as="geometry" />
        </mxCell>
        <mxCell id="U0fnFoimIb6kzD0exgC3-136" value="+ setAngularVelocity(double): void" style="text;align=left;verticalAlign=top;spacingLeft=4;spacingRight=4;overflow=hidden;rotatable=0;points=[[0,0.5],[1,0.5]];portConstraint=eastwest;rounded=0;shadow=0;html=0;fontStyle=4" parent="U0fnFoimIb6kzD0exgC3-133" vertex="1">
          <mxGeometry y="60" width="270" height="26" as="geometry" />
        </mxCell>
        <mxCell id="U0fnFoimIb6kzD0exgC3-137" value="+ setVelocity(double): void" style="text;align=left;verticalAlign=top;spacingLeft=4;spacingRight=4;overflow=hidden;rotatable=0;points=[[0,0.5],[1,0.5]];portConstraint=eastwest;rounded=0;shadow=0;html=0;fontStyle=4" parent="U0fnFoimIb6kzD0exgC3-133" vertex="1">
          <mxGeometry y="86" width="270" height="26" as="geometry" />
        </mxCell>
        <mxCell id="U0fnFoimIb6kzD0exgC3-138" value="+ setLearningRate(float): void" style="text;align=left;verticalAlign=top;spacingLeft=4;spacingRight=4;overflow=hidden;rotatable=0;points=[[0,0.5],[1,0.5]];portConstraint=eastwest;rounded=0;shadow=0;html=0;fontStyle=4" parent="U0fnFoimIb6kzD0exgC3-133" vertex="1">
          <mxGeometry y="112" width="270" height="26" as="geometry" />
        </mxCell>
        <mxCell id="U0fnFoimIb6kzD0exgC3-162" value="Car" style="swimlane;fontStyle=2;align=center;verticalAlign=top;childLayout=stackLayout;horizontal=1;startSize=26;horizontalStack=0;resizeParent=1;resizeLast=0;collapsible=1;marginBottom=0;rounded=0;shadow=0;strokeWidth=1;" parent="WIyWlLk6GJQsqaUBKTNV-1" vertex="1">
          <mxGeometry x="-906" y="110" width="346" height="554" as="geometry">
            <mxRectangle x="230" y="140" width="160" height="26" as="alternateBounds" />
          </mxGeometry>
        </mxCell>
        <mxCell id="U0fnFoimIb6kzD0exgC3-163" value="- learningRate: float" style="text;align=left;verticalAlign=top;spacingLeft=4;spacingRight=4;overflow=hidden;rotatable=0;points=[[0,0.5],[1,0.5]];portConstraint=eastwest;fontStyle=4" parent="U0fnFoimIb6kzD0exgC3-162" vertex="1">
          <mxGeometry y="26" width="346" height="26" as="geometry" />
        </mxCell>
        <mxCell id="U0fnFoimIb6kzD0exgC3-164" value="- CAR_RADIUS: int" style="text;align=left;verticalAlign=top;spacingLeft=4;spacingRight=4;overflow=hidden;rotatable=0;points=[[0,0.5],[1,0.5]];portConstraint=eastwest;rounded=0;shadow=0;html=0;fontStyle=4" parent="U0fnFoimIb6kzD0exgC3-162" vertex="1">
          <mxGeometry y="52" width="346" height="26" as="geometry" />
        </mxCell>
        <mxCell id="U0fnFoimIb6kzD0exgC3-165" value="- CAR_COLOR: Color" style="text;align=left;verticalAlign=top;spacingLeft=4;spacingRight=4;overflow=hidden;rotatable=0;points=[[0,0.5],[1,0.5]];portConstraint=eastwest;rounded=0;shadow=0;html=0;fontStyle=4" parent="U0fnFoimIb6kzD0exgC3-162" vertex="1">
          <mxGeometry y="78" width="346" height="26" as="geometry" />
        </mxCell>
        <mxCell id="U0fnFoimIb6kzD0exgC3-166" value="- MIN_SPEED: double" style="text;align=left;verticalAlign=top;spacingLeft=4;spacingRight=4;overflow=hidden;rotatable=0;points=[[0,0.5],[1,0.5]];portConstraint=eastwest;rounded=0;shadow=0;html=0;fontStyle=4" parent="U0fnFoimIb6kzD0exgC3-162" vertex="1">
          <mxGeometry y="104" width="346" height="26" as="geometry" />
        </mxCell>
        <mxCell id="U0fnFoimIb6kzD0exgC3-167" value="- angularVelocity: double" style="text;align=left;verticalAlign=top;spacingLeft=4;spacingRight=4;overflow=hidden;rotatable=0;points=[[0,0.5],[1,0.5]];portConstraint=eastwest;rounded=0;shadow=0;html=0;fontStyle=4" parent="U0fnFoimIb6kzD0exgC3-162" vertex="1">
          <mxGeometry y="130" width="346" height="26" as="geometry" />
        </mxCell>
        <mxCell id="U0fnFoimIb6kzD0exgC3-168" value="- velocity: double" style="text;align=left;verticalAlign=top;spacingLeft=4;spacingRight=4;overflow=hidden;rotatable=0;points=[[0,0.5],[1,0.5]];portConstraint=eastwest;rounded=0;shadow=0;html=0;fontStyle=4" parent="U0fnFoimIb6kzD0exgC3-162" vertex="1">
          <mxGeometry y="156" width="346" height="26" as="geometry" />
        </mxCell>
        <mxCell id="U0fnFoimIb6kzD0exgC3-169" value="- fitnessScore: int" style="text;align=left;verticalAlign=top;spacingLeft=4;spacingRight=4;overflow=hidden;rotatable=0;points=[[0,0.5],[1,0.5]];portConstraint=eastwest;rounded=0;shadow=0;html=0;fontStyle=0" parent="U0fnFoimIb6kzD0exgC3-162" vertex="1">
          <mxGeometry y="182" width="346" height="26" as="geometry" />
        </mxCell>
        <mxCell id="U0fnFoimIb6kzD0exgC3-170" value="- sensorArray: Sensor[]" style="text;align=left;verticalAlign=top;spacingLeft=4;spacingRight=4;overflow=hidden;rotatable=0;points=[[0,0.5],[1,0.5]];portConstraint=eastwest;rounded=0;shadow=0;html=0;fontStyle=0" parent="U0fnFoimIb6kzD0exgC3-162" vertex="1">
          <mxGeometry y="208" width="346" height="26" as="geometry" />
        </mxCell>
        <mxCell id="U0fnFoimIb6kzD0exgC3-171" value="- brain: NeuralNetwork" style="text;align=left;verticalAlign=top;spacingLeft=4;spacingRight=4;overflow=hidden;rotatable=0;points=[[0,0.5],[1,0.5]];portConstraint=eastwest;rounded=0;shadow=0;html=0;fontStyle=0" parent="U0fnFoimIb6kzD0exgC3-162" vertex="1">
          <mxGeometry y="234" width="346" height="26" as="geometry" />
        </mxCell>
        <mxCell id="U0fnFoimIb6kzD0exgC3-172" value="" style="line;html=1;strokeWidth=1;align=left;verticalAlign=middle;spacingTop=-1;spacingLeft=3;spacingRight=3;rotatable=0;labelPosition=right;points=[];portConstraint=eastwest;" parent="U0fnFoimIb6kzD0exgC3-162" vertex="1">
          <mxGeometry y="260" width="346" height="8" as="geometry" />
        </mxCell>
        <mxCell id="U0fnFoimIb6kzD0exgC3-173" value="+ Car(Point2D)" style="text;align=left;verticalAlign=top;spacingLeft=4;spacingRight=4;overflow=hidden;rotatable=0;points=[[0,0.5],[1,0.5]];portConstraint=eastwest;rounded=0;shadow=0;html=0;fontStyle=0" parent="U0fnFoimIb6kzD0exgC3-162" vertex="1">
          <mxGeometry y="268" width="346" height="26" as="geometry" />
        </mxCell>
        <mxCell id="U0fnFoimIb6kzD0exgC3-174" value="+ update(double, double): void" style="text;align=left;verticalAlign=top;spacingLeft=4;spacingRight=4;overflow=hidden;rotatable=0;points=[[0,0.5],[1,0.5]];portConstraint=eastwest;" parent="U0fnFoimIb6kzD0exgC3-162" vertex="1">
          <mxGeometry y="294" width="346" height="26" as="geometry" />
        </mxCell>
        <mxCell id="U0fnFoimIb6kzD0exgC3-175" value="+ multiplyVectors(double[], double[]): double" style="text;align=left;verticalAlign=top;spacingLeft=4;spacingRight=4;overflow=hidden;rotatable=0;points=[[0,0.5],[1,0.5]];portConstraint=eastwest;fontStyle=4" parent="U0fnFoimIb6kzD0exgC3-162" vertex="1">
          <mxGeometry y="320" width="346" height="26" as="geometry" />
        </mxCell>
        <mxCell id="U0fnFoimIb6kzD0exgC3-176" value="+ getSensorArray(): Sensor[]" style="text;align=left;verticalAlign=top;spacingLeft=4;spacingRight=4;overflow=hidden;rotatable=0;points=[[0,0.5],[1,0.5]];portConstraint=eastwest;" parent="U0fnFoimIb6kzD0exgC3-162" vertex="1">
          <mxGeometry y="346" width="346" height="26" as="geometry" />
        </mxCell>
        <mxCell id="U0fnFoimIb6kzD0exgC3-177" value="+ getBrain(): NeuralNetwork" style="text;align=left;verticalAlign=top;spacingLeft=4;spacingRight=4;overflow=hidden;rotatable=0;points=[[0,0.5],[1,0.5]];portConstraint=eastwest;" parent="U0fnFoimIb6kzD0exgC3-162" vertex="1">
          <mxGeometry y="372" width="346" height="26" as="geometry" />
        </mxCell>
        <mxCell id="U0fnFoimIb6kzD0exgC3-178" value="+ setBrain(NeuralNetwork): void" style="text;align=left;verticalAlign=top;spacingLeft=4;spacingRight=4;overflow=hidden;rotatable=0;points=[[0,0.5],[1,0.5]];portConstraint=eastwest;" parent="U0fnFoimIb6kzD0exgC3-162" vertex="1">
          <mxGeometry y="398" width="346" height="26" as="geometry" />
        </mxCell>
        <mxCell id="U0fnFoimIb6kzD0exgC3-179" value="+ getFitnessScore(): int" style="text;align=left;verticalAlign=top;spacingLeft=4;spacingRight=4;overflow=hidden;rotatable=0;points=[[0,0.5],[1,0.5]];portConstraint=eastwest;" parent="U0fnFoimIb6kzD0exgC3-162" vertex="1">
          <mxGeometry y="424" width="346" height="26" as="geometry" />
        </mxCell>
        <mxCell id="U0fnFoimIb6kzD0exgC3-180" value="+ setFitnessScore(int): void" style="text;align=left;verticalAlign=top;spacingLeft=4;spacingRight=4;overflow=hidden;rotatable=0;points=[[0,0.5],[1,0.5]];portConstraint=eastwest;" parent="U0fnFoimIb6kzD0exgC3-162" vertex="1">
          <mxGeometry y="450" width="346" height="26" as="geometry" />
        </mxCell>
        <mxCell id="U0fnFoimIb6kzD0exgC3-181" value="+ setAngularVelocity(double): void" style="text;align=left;verticalAlign=top;spacingLeft=4;spacingRight=4;overflow=hidden;rotatable=0;points=[[0,0.5],[1,0.5]];portConstraint=eastwest;fontStyle=4" parent="U0fnFoimIb6kzD0exgC3-162" vertex="1">
          <mxGeometry y="476" width="346" height="26" as="geometry" />
        </mxCell>
        <mxCell id="U0fnFoimIb6kzD0exgC3-182" value="+ setVelocity(double): void" style="text;align=left;verticalAlign=top;spacingLeft=4;spacingRight=4;overflow=hidden;rotatable=0;points=[[0,0.5],[1,0.5]];portConstraint=eastwest;fontStyle=4" parent="U0fnFoimIb6kzD0exgC3-162" vertex="1">
          <mxGeometry y="502" width="346" height="26" as="geometry" />
        </mxCell>
        <mxCell id="U0fnFoimIb6kzD0exgC3-183" value="+ setLearningRate(float): void" style="text;align=left;verticalAlign=top;spacingLeft=4;spacingRight=4;overflow=hidden;rotatable=0;points=[[0,0.5],[1,0.5]];portConstraint=eastwest;fontStyle=4" parent="U0fnFoimIb6kzD0exgC3-162" vertex="1">
          <mxGeometry y="528" width="346" height="26" as="geometry" />
        </mxCell>
        <mxCell id="U0fnFoimIb6kzD0exgC3-185" value="Sensor" style="swimlane;fontStyle=2;align=center;verticalAlign=top;childLayout=stackLayout;horizontal=1;startSize=26;horizontalStack=0;resizeParent=1;resizeLast=0;collapsible=1;marginBottom=0;rounded=0;shadow=0;strokeWidth=1;" parent="WIyWlLk6GJQsqaUBKTNV-1" vertex="1">
          <mxGeometry x="-1300" y="200" width="290" height="208" as="geometry">
            <mxRectangle x="230" y="140" width="160" height="26" as="alternateBounds" />
          </mxGeometry>
        </mxCell>
        <mxCell id="U0fnFoimIb6kzD0exgC3-186" value="&lt;span style=&quot;color: rgb(0, 0, 0); font-family: Helvetica; font-size: 12px; font-style: normal; font-variant-ligatures: normal; font-variant-caps: normal; font-weight: 400; letter-spacing: normal; orphans: 2; text-align: left; text-indent: 0px; text-transform: none; widows: 2; word-spacing: 0px; -webkit-text-stroke-width: 0px; background-color: rgb(251, 251, 251); float: none; display: inline !important;&quot;&gt;- length: double&lt;/span&gt;" style="text;whiteSpace=wrap;html=1;" parent="U0fnFoimIb6kzD0exgC3-185" vertex="1">
          <mxGeometry y="26" width="290" height="24" as="geometry" />
        </mxCell>
        <mxCell id="U0fnFoimIb6kzD0exgC3-187" value="&lt;span style=&quot;color: rgb(0, 0, 0); font-family: Helvetica; font-size: 12px; font-style: normal; font-variant-ligatures: normal; font-variant-caps: normal; font-weight: 400; letter-spacing: normal; orphans: 2; text-align: left; text-indent: 0px; text-transform: none; widows: 2; word-spacing: 0px; -webkit-text-stroke-width: 0px; background-color: rgb(251, 251, 251); float: none; display: inline !important;&quot;&gt;- projectedNormalizedLength: double&lt;/span&gt;" style="text;whiteSpace=wrap;html=1;fontStyle=0" parent="U0fnFoimIb6kzD0exgC3-185" vertex="1">
          <mxGeometry y="50" width="290" height="20" as="geometry" />
        </mxCell>
        <mxCell id="U0fnFoimIb6kzD0exgC3-188" value="" style="line;html=1;strokeWidth=1;align=left;verticalAlign=middle;spacingTop=-1;spacingLeft=3;spacingRight=3;rotatable=0;labelPosition=right;points=[];portConstraint=eastwest;" parent="U0fnFoimIb6kzD0exgC3-185" vertex="1">
          <mxGeometry y="70" width="290" height="8" as="geometry" />
        </mxCell>
        <mxCell id="U0fnFoimIb6kzD0exgC3-189" value="+ Sensor(int, Car)" style="text;align=left;verticalAlign=top;spacingLeft=4;spacingRight=4;overflow=hidden;rotatable=0;points=[[0,0.5],[1,0.5]];portConstraint=eastwest;fontStyle=0" parent="U0fnFoimIb6kzD0exgC3-185" vertex="1">
          <mxGeometry y="78" width="290" height="26" as="geometry" />
        </mxCell>
        <mxCell id="U0fnFoimIb6kzD0exgC3-190" value="+ setLength(double): void" style="text;align=left;verticalAlign=top;spacingLeft=4;spacingRight=4;overflow=hidden;rotatable=0;points=[[0,0.5],[1,0.5]];portConstraint=eastwest;fontStyle=4" parent="U0fnFoimIb6kzD0exgC3-185" vertex="1">
          <mxGeometry y="104" width="290" height="26" as="geometry" />
        </mxCell>
        <mxCell id="U0fnFoimIb6kzD0exgC3-191" value="+ getLength(): double" style="text;align=left;verticalAlign=top;spacingLeft=4;spacingRight=4;overflow=hidden;rotatable=0;points=[[0,0.5],[1,0.5]];portConstraint=eastwest;fontStyle=4" parent="U0fnFoimIb6kzD0exgC3-185" vertex="1">
          <mxGeometry y="130" width="290" height="26" as="geometry" />
        </mxCell>
        <mxCell id="U0fnFoimIb6kzD0exgC3-192" value="+ getProjectedLength(): double" style="text;align=left;verticalAlign=top;spacingLeft=4;spacingRight=4;overflow=hidden;rotatable=0;points=[[0,0.5],[1,0.5]];portConstraint=eastwest;fontStyle=0" parent="U0fnFoimIb6kzD0exgC3-185" vertex="1">
          <mxGeometry y="156" width="290" height="26" as="geometry" />
        </mxCell>
        <mxCell id="U0fnFoimIb6kzD0exgC3-193" value="+ setProjectedLength(double): void" style="text;align=left;verticalAlign=top;spacingLeft=4;spacingRight=4;overflow=hidden;rotatable=0;points=[[0,0.5],[1,0.5]];portConstraint=eastwest;fontStyle=0" parent="U0fnFoimIb6kzD0exgC3-185" vertex="1">
          <mxGeometry y="182" width="290" height="26" as="geometry" />
        </mxCell>
        <mxCell id="dM-SzHk5h2wBhV3TcvUz-0" value="# backgroundStrings: String[]" style="text;html=1;strokeColor=none;fillColor=none;align=center;verticalAlign=middle;whiteSpace=wrap;rounded=0;" vertex="1" parent="WIyWlLk6GJQsqaUBKTNV-1">
          <mxGeometry x="-1580" y="1040" width="220" height="30" as="geometry" />
        </mxCell>
        <mxCell id="dM-SzHk5h2wBhV3TcvUz-1" value="#&amp;nbsp;backgroundCombo: ComboBox[0..1]" style="text;html=1;strokeColor=none;fillColor=none;align=center;verticalAlign=middle;whiteSpace=wrap;rounded=0;" vertex="1" parent="WIyWlLk6GJQsqaUBKTNV-1">
          <mxGeometry x="-1650" y="1080" width="220" height="30" as="geometry" />
        </mxCell>
        <mxCell id="dM-SzHk5h2wBhV3TcvUz-2" value="#&amp;nbsp;sensorLengthSlider: Slider[0..1]" style="text;html=1;strokeColor=none;fillColor=none;align=center;verticalAlign=middle;whiteSpace=wrap;rounded=0;" vertex="1" parent="WIyWlLk6GJQsqaUBKTNV-1">
          <mxGeometry x="-1640" y="1150" width="220" height="30" as="geometry" />
        </mxCell>
      </root>
    </mxGraphModel>
  </diagram>
</mxfile>
